<?xml version="1.0" encoding="UTF-8"?>
<svg id="Calque_1" xmlns="http://www.w3.org/2000/svg" version="1.1" viewBox="0 0 1024 1024">
  <!-- Generator: Adobe Illustrator 29.8.3, SVG Export Plug-In . SVG Version: 2.1.1 Build 3)  -->
  <defs>
    <style>
      .st0 {
        fill: #dbbd76;
      }

      .st1 {
        fill: #eed894;
      }

      .st2 {
        fill: #eee1ac;
      }

      .st3 {
        fill: #e1cb86;
      }

      .st4 {
        fill: #ebd490;
      }

      .st5 {
        fill: #edd898;
      }

      .st6 {
        fill: #e9d18b;
      }

      .st7 {
        fill: #e4cd89;
      }

      .st8 {
        fill: #e6cc86;
      }

      .st9 {
        fill: #cdae68;
      }

      .st10 {
        fill: #ead591;
      }

      .st11 {
        fill: #ebd38e;
      }

      .st12 {
        fill: #e9cd88;
      }

      .st13 {
        fill: #edd692;
      }

      .st14 {
        fill: #faf2b9;
      }

      .st15 {
        fill: #e9dca6;
      }

      .st16 {
        fill: #060606;
      }

      .st17 {
        fill: #f4e7b1;
      }

      .st18 {
        fill: #dfc07b;
      }

      .st19 {
        fill: #e2c881;
      }

      .st20 {
        fill: #ead695;
      }

      .st21 {
        fill: #eedc9f;
      }

      .st22 {
        fill: #d5b56d;
      }

      .st23 {
        fill: #e7c981;
      }

      .st24 {
        fill: #ecd38e;
      }

      .st25 {
        fill: #e1c47e;
      }

      .st26 {
        fill: #e7d18d;
      }

      .st27 {
        fill: #e2d196;
      }

      .st28 {
        fill: #dec582;
      }

      .st29 {
        fill: #f1de99;
      }
    </style>
  </defs>
  <path class="st16" d="M1030-6v1030H0V-6h1030ZM403.35,251.5c-24.73-8.87-49.46-11.53-75.43-6.03l14.08,3.01c2.3.62,4.71.58,7.04,1.01l29.17,12.07c.97,1.19,5.03,3.5,7.04,5.03,18.22,13.93,31.2,24.75,43.67,45.35,4.25,7.03,7.05,14.63,11.65,21.04-.13,5.89,5.03,11.51,6.91,15.93,10.63,24.99,21.1,49.01,32.31,73.6,7.31,16.02,13.77,33.69,23.13,48.28.33,2.1,3.78,12.06,5.53,12.05l4.53-6.02,1.01-1.01c.34-.25.92-.64,1.01-1.01.08-.34-.11-.76,0-1.01l2.01-3.02c5.14-7.51,13.28-20.88,14.08-30.18.23-2.68.14-5.42-.49-8.06-1.78-7.44-11.54-26.85-15.6-34.18-.33-.6-.58-1.28-1.01-2.01-1.83-8.21-6.75-15.73-10.06-23.13-6.63-14.84-12.85-30.34-20.83-44.56-1.29-2.29-5.93-14.03-6.49-14.66-.91-1.02-1.69,1.83-3.86-4.15-.11-.3.11-.72,0-1.01-.98-2.42-1.43-2-2.01-3.02-1.23-2.14-2.45-4.12-4.02-6.04v-1.01c-16.67-23.05-36.63-37.69-63.37-47.28ZM684.99,244.46c-21.27-1.93-36.13-.57-56.36,6.56-1.6.57-3.57-.22-2.99,2.5-31.66,9.62-51.61,35.77-68.4,62.36-3.34,5.29-6.89,10.27-10.06,16.09-2.38,4.37-4.91,8.55-7.04,13.08-.52,1.1-.64,2.2-1.01,3.02-.12.28.12.72,0,1.01-.25.56-.65,1.15-1.01,2.01-.24.59-.69,1.21-1.01,2.01-1.15,2.92-2.83,5.58-4.02,9.05-.1.3.1.7,0,1.01-3.44,4.67-4.44,10.67-6.04,16.09-1.49,5.07-3.64,9.83-4.04,15.58l2.01.51,10.07-22.13c14.68-21.62,24.77-43.16,42.25-63.37,11.76-13.6,27.11-22.54,40.23-35.21l1.85.87,2.17-3.89c5.97-1.13,6.95-1.92,11.06-6.04,12.34-4.24,23.72-11.01,36.43-14.37,5.41-1.43,13.43-3.17,18.89-3.74,3.31-.34,7.14.13,10.57,0,1.22-.05,3.74.76,3.5-.99-5.63-1.29-11.36-1.5-17.09-2.02ZM616.59,319.9c4.89-9.97,10.6-20.61,17.27-29.5,1.8-2.4,12.9-13.98,12.88-15.27-.03-1.79-2.35-1.26-3.71-.72-3.75,1.5-16.06,11.57-19.42,14.79-17.05,16.31-25.69,35.4-36.2,56.85-8.4,17.14-16.27,33.89-24.14,51.3-4.04,8.94-14.5,27.72-16.09,36.21-.06.32.06.68,0,1.01-4.09,5.5-6.44,12.8-9.05,19.11-1.53,3.69-3.62,7.31-5.03,11.06-.11.29.11.71,0,1.01-1.52,2.23-2.76,4.67-4.02,7.04-2.18,4.09-5.06,9.33-6.04,13.08-2.24-.31-3.96,4.07-4.85,5.71-.95,1.73-1.27,3.83-2.19,5.35-.21.35-.77.62-1.01,1.01-4.67,7.59-9.85,15.95-15.09,23.13-3.45,4.73-15.92,17.33-17.1,21.12-.37,1.19-.78,1.55,0,3.02h-1.01c-.24-.32-.74-1.04-1.01-1.01-.52.07-6.93,5.52-8.11,6.5-4.4,3.69-7.74,7.2-13.01,10.6-4.28,2.75-15.75,9.96-19.36,11.41-2.81,1.12-4.43-1.52-5.79,1.67-3.17-.25-4.81-.13-8.04,1.02v.99s14.58,0,14.58,0c2.48,0,5.02.22,7.54,0,4.05-.35,11.51-1.48,15.09-3.02.41-.18.73-.9,1.01-1.01,2.49-.81,9.33-1.15,9.05-4.02,1.3-.45,2.66-1.01,3.95-1.38.91-.26,2,.45,2.07.37.19-.22-.12-1.4,0-2.01h1.01c.9,1.94,1.59-.8,2.01-1.01,3.09-1.5,8.78-3.35,10.06-7.04,1.15-.22,1.49-.24,2.53-.94,14.01-9.39,27.31-29.97,35.69-44.32,4.6-7.87,7.3-12.56,11.06-21.12,1.43-3.25,3.56-6.14,5.03-10.06.11-.29-.11-.71,0-1.01,4.72-9,9.23-18.35,12.07-28.16,2.84-3.67,2.82-5.04,4.02-9.05,11.39-23.85,21.8-48.43,32.37-72.74,2.94-6.76,4.95-14.18,7.87-20.8.85-1.93,1.83-4.28,2.86-6.6,1.15-2.59,3.72-6.26,5.19-9.5,1.83-4.03,3.07-9.08,5.03-13.08ZM193.12,647.81c-.88-.25-2.12-1.82-4.02-1-2.07,4.08,2.1,5.03,3.27,7.31,4.87,9.43,7.64,22.19,12.81,30.9.23.39.67.69,1.01,1.01,1.56,6.23,3.75,9.59,6.04,15.09,1.24,2.99,2.6,9.79,4.03,12.3.99,1.73,4.29,1.16,1.98,4.79h3.04s-2.01,3-2.01,3c3.63-.17,1.82,3.2,2.51,5.03,1.02,2.68,2.44,5.34,3.51,8.06,2.75,6.97,5.88,13.83,8.18,20.99l9.94-.35c1.85-1.11,3.07-8.26,4.01-10.58s1.34-4.41,2.01-6.04c2.65-6.43,6.03-12.07,8.05-19.11,2.2-2.21,2.12-5.68,3.02-8.05.22-.57.74-1.12,1.01-2.01.47-1.55,1.43-3.05,2.01-5.03.09-.31-.09-.69,0-1.01,2.04-2.31,3.24-6.11,4.02-9.05.15-.58-.15-1.43,0-2.01,3.47-3.39,4.74-9.53,6.04-14.08,3.61-6.77,6.94-14.75,9.05-22.13.09-.31-.08-.69,0-1.01l3.02-5.03,3.02-1.01.99-.5-.99-1.02c-1.03-1.15-.95.51-1.01.51-7.74-.22-15.5-.17-23.13-1-.47,3.38,3.38,1.69,5.02,5.02,2.35,4.77.09,8.57-1.01,13.08-1.05,4.29-2.44,7.98-4.02,12.07-1.75,4.5-4.94,9.98-6.81,14.82-4.16,10.77-9.44,30.51-14.32,39.5-2.66.59-1.91-1.39-2.55-2.93-2.39-5.79-5.24-11.41-7.51-17.18-3.12-7.93-5.83-19.8-10.06-27.16-.81-1.42-2.47-3.55-4.02-4.02,4.22-1.78.26-4.27-.69-6.85-2.06-5.57-5.88-14.65-5.34-20.3.08-.82.51-2.86.9-3.41,1.02-1.45,3.93.65,3.11-2.62l-24.13,1ZM372.17,647.81c-16.21-1.3-33.22.27-49.74.04-1.88-.03-3.64-1.24-5.58-1.04-.16,2.78,2.31,2.33,4.02,5.02,3.05,4.81,2.78,10.7,3.02,16.09.36,8-.26,16.13,0,24.14-.16,1.73-.16,8.29,0,10.06.1,1.15,3.06,4.44,1.01,8.04h3.02c-1.06.45-3.53,1.65-3.89,2.65-.4,6.15.05,12.33-.13,18.47-.06,2.01.1,4.03,0,6.04-.21,4.14.15,11.48-2.96,14.66-1.81,1.85-4.7.39-4.08,3.44,16.41-.08,32.87.12,49.28,0,8.48-.06,17,.02,25.48.04,1.14-.27,1.43-3.03,1.68-4.07,1.33-5.55.78-12.16,3-17.61l-7.02,6.55c-4.97,2.38-8.9,4.88-14.08,6.04l-13.53-1.05c-6.31.71-13.72-1.27-19.66,1.05-.96-.26-1.53-.85-2.01-1.01,1.91-.96,1.94-1.39,2.08-3.43.83-11.89-.75-24.81-.07-36.81,7.02.68,14.98-.49,22.13,0,7.01.48,9.75,1.32,14.08,7.04v-22.13c-7.94,8.64-21.21,6.04-32.19,6.04h-5.03c1.2-2.7.06-5.68,0-8.05l1.01-32.19c10.48.98,24.23-1.75,34.2,1.01,1.19.33,6.89,3.21,8.05,4.02,2.79,1.97,2.48,4.34,5.03,4.02v-18.11c-4.9,2.71-9.94-1.66-14.08,1.01-.33-.04-.67.03-1.01,0l-.5-.99-.5.99c-.33-.03-.67.03-1.01,0ZM447.61,647.81l-20.11-1c-.43,2.97,2.55,1.8,4.61,3.94,1.04,1.09,1.28,3.01,2.43,4.11.17,7.69.9,15.36,1.01,23.13.19,14.73-.14,29.52,0,44.26-.36,6.73.54,13.96,0,20.61-.32,3.87-2.63,7.55-1.87,11.49.59.39,1.49-.06,1.88.09.72.29,1.02.92,2.43,1.05,8.99.84,20.44-.06,29.76-.04.67,0,1.34,0,2.01,0,5.87,0,11.83-.97,17.1-1.01.34,0,.67,0,1.01,0,2.66-.02,14.68,2.28,16.04.95.92-2.78.35-5.92.58-8.47.23-2.53.84-1.5.48-5.55l3.01-11.06c-2.82,2.52-6.62,4.85-8.04,8.05-3.53,1.53-12.79,7.04-15.59,7.04h-30.68c-.28-5.86.36-11.84.05-17.71-.08-1.54-1.05-2.28-1.06-2.41-.02-.33.01-.67,0-1.01.49-1.73,1.6-3.63,0-5.03-.1-3.67.06-7.39,0-11.06-.02-1.01.01-2.01,0-3.02-.03-2.01.01-4.02,0-6.04,0-.34,0-.67,0-1.01-.01-2.68,0-5.37,0-8.05v-3.02c.2-6.68-.28-13.45,0-20.12.02-.4-.01-.84,0-1.01.26-4.01.82-8.89,1.79-12.81l6.25-6.3c-3.66.87-7.37.73-11.06,1-.66.05-1.35-.06-2.01,0ZM523.05,669.94c3.95,9.07,8.07,18.12,12.07,27.16,1.25,2.83,1.22,6.79,4.02,9.05,1.89,6.99,5.28,13.48,8.05,20.12,1.56,3.74,3.89,7.4,5.03,10.06.27.63-.14,2.57.48,4,.93,2.18,5.82,14.19,6.55,14.62,1.22.73,6.01.85,7.41.48,1.17-.31-.49-3.6,4.67,0,.24-1.19-.3-3.06.01-4.02,5.51-16.95,17.02-39.82,24.14-57.33,3.86-9.49,8.69-19.77,12.07-28.16,1.28-3.16,3.05-6.93,4.02-10.06.09-.31-.09-.7,0-1.01l7.04-8.04-25.14,1.01c1.19,2.13,3.6,1.83,4.57,4.97.92,2.96.32,6.09.45,9.11-.48-.05-.78.04-.94.55-.42,3.49-2.26,6.37-3.49,9.41-.75,1.88-1.69,5.86-2.61,8.14-.46,1.14-1.73,1.42-2.01,4.02-.04.33.03.67,0,1.01-2.09,1.18-1.63,3.21-2.01,5.03-.07.32.07.69,0,1.01-3.1,1.47-2.95,5.36-4.02,8.05-4.42,11.13-9.78,21.93-14.08,33.19-2.21-1.63-4.63-14.23-8.05-17.1.11-1.74-.15-3.51-2.01-4.02-.04-.33.06-.69,0-1.01-.89-4.64-3.66-10.88-6.04-15.09-.17-.29.32-2.24-1.01-2.01l-14.08-37.22c.04-.35-2.38-.11,1.07-1.59-.06-.93-.75-1.64-1.07-2.43l6.03-3.04v-1.99c-1.03-.34-2.14,1-2.51,1h-18.11c-2.94,0-3.36-.51-7.54,0-.11.01-1.12-1.39-2-1.01-2.23,4.3,1.6,5.56,3.39,9.17,2.25,4.51,3.65,9.39,5.64,13.97ZM665.88,647.81c-6.92-.13-15.84-3.09-22.12.51,10.03,2.93,5.28,16,8.04,23.63-1.86,9.92-.13,16.13,0,25.15,0,.32,0,.67,0,1.01,0,.67,0,1.34,0,2.01,0,.13-.68.53,0,1.01v11.06c-.03,1.34.05,2.69,0,4.02,0,.13-.99,1.14-1.05,2.43-.3,7.3,1.7,27.41-1.94,32.29-2.09,2.79-5.31,1.37-5.05,4.5,19.43-.12,38.91.18,58.33,0,3.09-.03,16.54.73,17.67-.94l3.47-20.68c-2.07-1.89-2.72,2.03-4.49,3.55-2.77,2.39-11.79,8-15.14,8h-34.7v-40.23h25.65c3.72,0,10.23,3.22,9.57,8.05,2.47.62,2.35-1.06,2-3.02.16-1.39.53-23.05-2-20.12.77,2.96-1.91,3.73-4.03,5.03l-31.19,1.01c-.03-1.34.03-2.69,0-4.03-.06-3.01.03-6.04,0-9.05-.05-4.01,0-8.06,0-12.07v-15.09c3.88-1.14,13.68-.21,18.11,0,8.79.42,15.28-.34,23.47,4.19,2.02,1.11,4.86,4.79,5.2,4.87,2.6.61,1.45-6.37,1.5-8.05.03-1,.04-2.02,0-3.02-.03-.67.05-1.35,0-2.01-.03-.33.03-.67,0-1.01-.05-.66.03-1.35,0-2.01l-1.01-1.01c-6.54-.1-13.11.11-19.66.04-9.12-.1-18.3.06-27.62-.04l-.5-.99-.5.99c-.67,0-1.34.01-2.01,0ZM777.53,647.81c-.67,0-1.34,0-2.01,0-.34,0-.67,0-1.01,0-3.01.02-6.04-.05-9.05,0-.34,0-.67,0-1.01,0-4.68.06-9.4-.04-14.09,0-.05,2.67.07,5.38,0,8.05-.03,1-.02,2.01,0,3.02.05,3.01-.04,6.04.01,9.05h.98c.14-.86.51-2.44,1.02-3.01,10.83-12.26,22.46-6.41,36.21-8.05v24.14c0,6.36.01,12.75,0,19.11-.02,9.38,1.52,44.25-2.01,50.29-.67,1.14-4.42,3.37-6.04,3.03v2h33.19v-2c-1.86.04-3.69-.8-5.03-2.02-4.38-4-1.96-6.34-1.97-10.52-.02-12.59,0-25.19-.05-37.76-.04-9.65,1.88-39.33,0-46.27,11.79,1.17,25.43-3.88,34.2,6.04,0,.22.91,4.42,2,4.02l.02-19.11h-20.12c-.34,0-.67,0-1.01,0s-.67,0-1.01,0l-.5-.99-.5.99h-15.09l-.5-.99-.5.99c-1.68,0-3.35,0-5.03,0-.14-1.51-2.88-1.51-3.02,0-2.68,0-5.37,0-8.05,0l-.5-.99-.5.99c-1.34,0-2.68,0-4.02,0l-.5-.99-.5.99c-1.01,0-2.01,0-3.02,0-.22,0-.72,0-1.01,0Z"/>
  <path class="st25" d="M395.3,252.51c.08.26-1.03,3.76.51,5.04l1.5-.02-1.01-5.02c.67.02,1.34-.03,2.01,0v2.01c2.05.5,2.58-.16,4.02-1,.82-.48,1-1.11,1.01-2.01,26.74,9.59,46.7,24.23,63.37,47.28l-1.99,1.52,1.99-.51c1.57,1.92,2.8,3.9,4.02,6.04-6.23-3.97-5.01,5.5-10.57.02l-.42,2.48-4.99,1.6.74,9.78c-1.08,1.14-5.12,1.83-5.68,2.49-1.94,2.32,1.93,4.05-6.24.74l.99,10.05-3-4.02c.44,1.39-1,3.24-1.02,4.02-4.6-6.4-7.4-14.01-11.65-21.04-12.47-20.6-25.45-31.42-43.67-45.35,2.85.51,5.77,1.47,8.05-1.01.91,3.9,1.98,6.09,6.03,4.01l-2-1.99,3.01-1.53-1.8-.72c-.57-.71,1.38-2.75-.73-3.79-1.81-.89-1.05,3.55-4.51,1-.34-3.13-1.64-4.3,1.01-7.03l-4.03-.5,3.03-4.53c.79.52,1.73,1.02,2.01,2.01ZM398.82,255.52v1.01c.65-.34.65-.67,0-1.01ZM466.22,301.79v1.01c.65-.34.65-.67,0-1.01ZM451.64,314.88c-3.71.67-7.1.39-7.05,5.02,3.45,1.71,4.66-1.74,8.04-2.02l-1.86-1.1.87-1.9Z"/>
  <path class="st6" d="M636.71,252.51c-1.06,2.09.94,4.78-5.03,4.03v1.49s2.1,1.13,2.1,1.13l-.59,3.39,1.71-2.8c.52-.43,1.21-.25,1.82-.2.21,4.59-2.92,3.46-3.77,4.24-.62.56-.13,1.67-.25,1.79-4.11,4.11-5.1,4.9-11.06,6.04-1.2.23-2.58-.14-3.53.98l-.99-3.98c-1.03.42-2.82,7.07.5,6.02-13.13,12.67-28.47,21.6-40.23,35.21-1.27-3.37-3.45-.5-6.04-1l1.01,4.01h-3.04s.92,1.91.92,1.91c-.75.42-2.46.58-2.91,1.11l-1.02-2h-.98c-.73,2.15-.96,3.9-.01,6.03-.31.36-.67.67-1.01,1.01l-5.56-3,.53,1.99-2.01-1v-3.02c16.79-26.59,36.74-52.74,68.4-62.36,3.39-1.03,7.84-2.95,11.06-1.01ZM622.12,268.6v1.01c.65-.34.65-.67,0-1.01Z"/>
  <path class="st22" d="M212.24,701.12l1.09-3.96,1.92-.07-2.51-2.85-2.51.86c-.53-.56-.18-6.54-.7-7.81-.53-1.31-2.05-1.25-2.11-1.41-.16-.37,1.21-4.26-.23-5.87l-1.99,2-2.03-9.06-1.99,1.02v-6.04s6.04,8.03,6.04,8.03l1.05-1.93,2.88.87,1.08-1.94c-.61,1.89,2.98,2.91,3.01,3.5.01.37-3.59,2.47-.99,4.06.99.45,4.67-.64,5.04-.53,1.55.48,3.21,2.61,4.02,4.02-1.61,1.09.05,4.59.56,5.99,2.44,6.76,5.38,15.71,9.5,21.17,2.28,5.78,5.12,11.39,7.51,17.18.63,1.54-.11,3.53,2.55,2.93-.93,1.73-4.92,2.3-6.03,4.54l5.02,1.49c.63.64,1.08-1.58,2.01,2.01.73,2.81,1.06,4.37-2.01,5.52l2.01,2.53c-.69,1.64-.27,4.27-1.66,5.12h-7.95c-2.43-2.47-2.42-6.66-3.57-9.35-.35-.81-1.46-.71-1.82-1.58-.76-1.81-.04-7.41-4.11-7.27-1.07-2.72-2.49-5.38-3.51-8.06-.7-1.83,1.11-5.2-2.51-5.03l2.01-2.99h-3.04c2.31-3.65-.99-3.07-1.98-4.81-1.43-2.51-2.79-9.32-4.03-12.3ZM242.41,739.35l-6.01.49c2.11,4.72,4.86,4.53,6.01-.49Z"/>
  <path class="st24" d="M479.79,422.5l4.79,3.21c-2.51,4.86,4.36.74,2.26,6.84l4.01-.99-2.08,1.61.11,4.93,3.99-.52v10.06s4.54-4.02,4.54-4.02c1.55,2.56,3.16,1.69,1.5,5.02h6.03s-1.04-3.45-1.04-3.45c2.15-1,1.33-2.82,4.06-4.59.27,2.13,1.56,4.24,4.02,4.02l1.02-5.52-2.01,1.49-1.53-3.01c-1.5-.47-1.43.95-1.5,1.01-.82.71-.69,2.29-2,2.01-.87-4.63,1.44-4.87,3.38-7.12,2.47-2.88.81-4.09,7.19-4.92l-.51,2.99h5.03c-.93,2.64-1.45,6.8.54,9.05,1.06,1.2,3.49.52,3.98,3.03l1.52-4.04c.3-.27,1.46.85,2,1.01.52.16,1.38-.11,2.01,0-.8,9.3-8.94,22.67-14.08,30.18-.79,1.16-.99.7-2.01,3.02-.11.25.08.66,0,1.01h-2.01s1,1.01,1,1.01l-1.01,1.01-4.99,3.01c-1.1-3.32-3.21-6.14-5.07-9.04-9.36-14.59-15.83-32.26-23.13-48.28ZM514.5,438.59v1.01c.65-.34.65-.67,0-1.01ZM521.54,443.62v1.01c.65-.34.65-.67,0-1.01ZM513.49,445.63v1.01c.65-.34.65-.67,0-1.01ZM514.5,447.64v1.01c.65-.34.65-.67,0-1.01ZM522.04,448.65l-3.1.59-.91,5.44,3.1-.59.91-5.44Z"/>
  <path class="st10" d="M437.55,705.14c.97.03,3.74,1.77,4.03.49.66-2.95-3.25-.25-3.01-2.49,3.69-1.97,7.54-7.4,1-7.06-.69-2,.59-3.86,2.53-4.02.22-.02,1.01,3.13,3.5,2.02l-1,5.01,1.01-3.01,1.01,2.01,1.5-2.03c.43-.1,1.06,1.41,1.51,2.02.62.85.77,2.37,2.01,3.02-.13.61.17,1.49,0,2.01-.96,3.03-2.05.58-1.01,6.04.06.32-.05.68,0,1.01.07.47.99.88,1.01,1.01.1.64-.07,1.36,0,2.01.01.12,0,1.77,0,2.01-.01.67.04,1.35,0,2.01-.03.44-2.69,3.34,0,4.02h1.01c0,.32-.83,1.07-.79,1.75.06.98.79,1.19.79,1.27.01.33-.02.67,0,1.01l-2.47,5.1c.24.99.12,2.36.5,3.22.58,1.31,2.34.12,1.97,1.73l-2.1.61,1.02,2.99c-4.19.58.63,8.61,2.29,9.32,1.71.73,5.44-3.12,6.27,1.12,6.41-3.04,14.26.04,21.26-.87,2.03-.26.86-2.74,4.46-2.09.24.38.58.84,1.01,1.01.29.11.71-.11,1.01,0l-.93,3.58,1.92.9-.99,2.56c-.34,0-.67,0-1.01,0,.6-4.25-4.31-.59-6.04-.39-3.53.39-8.21-1.13-11.06,1.4-.67,0-1.34,0-2.01,0l-28.16-1.02,1-3.01-2.01-2.01-3,2.52v2.51c-.39-.15-1.3.3-1.89-.09-.76-3.93,1.56-7.61,1.87-11.49.54-6.65-.35-13.88,0-20.61.26-4.93,1.93-11.61,2.01-17.1ZM444.09,700.11v1.01c.65-.34.65-.67,0-1.01ZM445.09,703.13v1.01c.65-.34.65-.67,0-1.01ZM445.09,705.14v1.01c.65-.34.65-.67,0-1.01ZM444.58,723.25l-1.98.48c.14,5.24,1.32,3.84,2.87,5.76.2.25-1.53,3.81.62,3.79,1.33,0,1.26-5.02,1.12-5.56-.29-1.19-3.78-1.49-2.64-4.47ZM442.58,730.28l-2.52-2.99-.47.47.99,2.52h2.01Z"/>
  <path class="st1" d="M513.99,502.96c3.42-1.53,4.66.51,8.06,1.02l-1.08,4.01-2.93-.51c-.76,1.8,5.03,4.87,0,4.01,2.27,1.17,2.09,4.14,2.27,4.35.49.55,2.53-.5,1.72,2.21l-2.97-.52.55,2.53-2.6,2,5.12-.64c1.98-1.69,1.03-5.48,1.95-6.77,1.02-1.45,2.61-1.33,2.98-1.64,1.17-.96-3.57-.71-2-3l2.43,1.06,3.59-1.06c-.18.47.12,1.39,0,2.01-8.38,14.35-21.68,34.93-35.69,44.32-1.04.7-1.39.72-2.53.94.24-.7-.21-2.1.02-3.01l1.68.5c.9-3.03.79-3.63-.7-6.54l-1.98,1.99c.3-1.81-1.59-2.11-3.03-3.01h2.01s-.49-4-.49-4c-1.58,1.06-1.74,2.15-1.52,4-.14-.08-.9.15-1.7-.33-.91-.54-.62-3.27-3.33-1.69l1-3.01h-2.01c1.18-3.8,13.65-16.4,17.1-21.13.6,2.06,4.55-2.11,4.7-2.33.64-.98,2.04-6.39,2.67-7.41.49-.78,2.81-1.83,3.37-2.65.76-1.11.18-4.3,3.34-5.72ZM516,522.09h-2v.99h2v-.99Z"/>
  <path class="st26" d="M616.59,319.9l-1.27-.78c-.87,4.26-5.31,9.58-3.76,13.85-1.47,3.23-4.04,6.91-5.19,9.5-1.03,2.32-2.01,4.67-2.86,6.6-.64-.08-1.41.12-2.01,0-4.69-.97-9.37-2.13-14.08-3.02,10.51-21.44,19.15-40.53,36.2-56.85,3.36-3.22,15.67-13.29,19.42-14.79,1.35-.54,3.68-1.08,3.71.72.02,1.28-11.08,12.87-12.88,15.27-6.67,8.89-12.38,19.53-17.27,29.5ZM595.47,341.02c.04.35-.09.75,0,1.01.89,2.56,1.2,2.95,5.04,2.51-2.38-1.2-1.97-3.19-4.51-4.52-2.7-1.42-.69-.2-.53,1ZM592.44,344.03v-2h-.99v2h.99Z"/>
  <path class="st13" d="M601.5,349.07l-16.11,41.23c-.96.2-2.11-.16-3,.01-.6.11-1.36-.1-2.01,0,.04.65-.11,1.39,0,2.01-1.13-.16-1.97-.67-3.01-1.01v3.01s4.01,0,4.01,0c.39-.25-.91-1.45-1.01-2,.64.09,1.36-.06,2.01,0,.34,1.1,1.7,2.15,1.01,4.02-.87.21-2.41-.25-3.02,0-.95.41-1.75,1.3-2.51,1.99l.5-2.99h-3.01c-.39,2.73.02,2.49,2.03,3.51l-3.04,2.53,2.01,5.01h-1.01l-.51-3.02h-1.49s0,3.02,0,3.02c-.66.06-1.35-.04-2.01,0-.3-.26-.81-1.03-1.01-1.01-.25.03-4.57,1.28-4.78,1.4-.81.46-2.24,3.43-2.44,3.51-.52.21-.72-.89-.82-.89.2-1.75-1.24-3.88-1.05-5.39.05-.38,4.48-3.36,2.05-6.68,7.87-17.41,15.74-34.16,24.14-51.3,4.71.89,9.39,2.05,14.08,3.02ZM574.34,395.33v-3.01s-.99,0-.99,0l-1.02,3h2.01ZM576.35,394.33v-2h-.99v2h.99ZM567.81,404.39v1.01c.65-.34.65-.67,0-1.01Z"/>
  <path class="st3" d="M653.81,667.93c.55-.14,1.36.07,2.01,0v1.01l.15,2.87c.43.49,1.43.02,1.86.15,1.2.37,1.25,1.07,3.01,0-1.9,4.08.29,2.47,1,3.72,1.24,2.19,1.67,4.74,3.01,6.88l-2.01.96,1.3.51.71,2.5-5.02,1.53,2,1.49c-.78,2.14-3.96-.99-2.94,2.46l2.42,2.06c1.73-1.61,3.34-1.82,5.56-2l.02,3.34-2.05,1.19,2.02,1.51c-2.45,1.24-1.1,1.72-1.44,4.1l-2.52.38.95,6.58h-4.04c-1.41,4.85,5.42,8.11,4.04,1.02l2,1c.23.66.88,1.4,1.01,2.01.01.05,0,.74,0,1.01.08,3.31.2,9.21,0,12.07-.06.87.06,1.93,0,2.01-.13.16-.87-.16-1.01,0l-.99.51.99.5-1.01,10.06c-.6-.56-2.85-1.81-3.02-.5v2.51s3.02-1.01,3.02-1.01l2.02,1.51-2.02.5c-4.48,1.72-4.8-.85-6.54-4.02-1.15.26-.17,2.36-.5,3.01-.11.21-1.44.8-2.01,2.01-2.99.3-1.45-.29-1.63-2.08-.4-4.07-1.1-8.28-.33-12.36l-2.05-.67,2.03-1.49v-2.03s-2.03-1.49-2.03-1.49l3.03-.02c.3-.21-2.01-6.35-2.02-7.03-.03-1.71,2.28-4.77,3-6.55l-1.99-3.51c.65,0,2.07.38,2.02-.5.07-.88-1.27-.49-2.02-.5l.07-6.39-2.09-.65v-1.01c-.13-9.01-1.86-15.22,0-25.15.22-1.19-.18-2.75,0-4.03.64-.12,1.46.14,2.01,0ZM661.35,702.12v1.01c.65-.34.65-.67,0-1.01ZM657.82,708.16v-3.01h-.99v3.01h.99ZM658.34,710.19l-1.5,1.5.47.47c.56-.64,2.03-1.31,1.03-1.97Z"/>
  <path class="st4" d="M795.63,696.09c.71,1.17,2.47.71,3.02,1.01,1.63.87-.66,1.28,3.02,1.01.66-.05,1.34.02,2.01,0l.02,6.04,3.01-1.01c.05,12.57.03,25.17.05,37.76,0,4.18-2.41,6.52,1.97,10.52-3.84,3.34-9.1,2.85-13.79,2.67-1.29-.05-2.25-1.27-2.83-1.28-2.09-.02-5.4,4.58-5.52-2.4,3.53-6.04,1.99-40.91,2.01-50.29h1.01c2.62-.85,4.32-2.03,4.04-5.04.31-.39,1.57,1.14,2,1.01ZM794.41,700.4c-.79-.28-1.44-.47-2.28-.28-3.63,7.18-.2,15.53-.51,23.12l4.01-1.02-2.05-1.51,2.11-5.09-2.14-2.04,1.15-3.87-2.07-.57,1.82-1.13-.62-1.69,2.82-1.7-2-.51,2-1.99c-1.42.49-2.07-1.69-2.22-1.74ZM804.68,718.22c-5.01.16-5.91,2.29-6.02,7.03l5.55-.99.47-6.04ZM802.67,729.3l-4.52-3.01c-2.29,1.25-.63,3.2-1.19,4.77-.36,1.03-1.83,1.17-1.98,1.58-1.43,3.84-2.19,7.03-2.3,11.15l3.4,2.48,2.57-.88-1.02,2h3.03s-4.02-3.02-4.02-3.02l3.01-1.49-6.02-5.52c2.9-.31,4.13-2.21,4.03-5.04l1.49,2,3.52-5.01Z"/>
  <path class="st29" d="M449.62,647.81l3.92,2.58c-4.08,10.31-1.69,20.72-1.84,31.12-.05,3.24-.82,5.75-1.07,8.55-.06.66.06,1.35,0,2.01-.06.66.04,1.35,0,2.01-.02.33.02.67,0,1.01-.05.66.13,1.48,0,2.01-.06.24-.8.62-1.01,1.01-.45-.62-1.08-2.13-1.51-2.02l-1.5,2.03-1.01-2.01-1.01,3.01,1-5.01c-2.49,1.11-3.28-2.04-3.5-2.02-1.94.16-3.22,2.02-2.53,4.02,6.54-.34,2.69,5.09-1,7.06-.24,2.24,3.67-.46,3.01,2.49-.29,1.28-3.06-.46-4.03-.49,0-.11-1.02-.96-1.01-2.01v-2.01c-.04-7.44,1.07-15.97-1.01-23.13-.1-7.77-.84-15.45-1.01-23.13-.04-2.01.02-4.04,0-6.04,3.45-.27,7.26.39,10.65.05,1.31-.13,2.26-1.03,2.43-1.05.66-.06,1.35.05,2.01,0ZM444.6,654.86l-2.88-.9-2.21,5.3,2.19,2.53,5.91-1.91c.67-3.16-1.95-1.8-4.02-2.01l1.01-3Z"/>
  <path class="st11" d="M539.14,688.04c-1.52.39-3.41-.39-4.02,2.01-.13-.25-1.35.44-3.02-4.02,1.5.36,4.41-.06,5.62.42,1.09.44,1.23,1.49,1.42,1.59Z"/>
  <path class="st11" d="M547.19,685.03c.78,1.81,1.85,5.75,2.01,6.04.11.19,2.96-.44,2.03,3.04.49-.12.82-1,.99-1.03,1.33-.22.84,1.72,1.01,2.01-3.66-.19-1.29.6-.63,2.13,1.44,3.32,2.86,6.58,4.18,9.96.6,1.55-.3,3.59,2.49,3,.06.32-.04.68,0,1.01.12,1.03-.26,3.69,0,4.03.19.24,1.74-.24,2.01,0,3.42,2.87,5.84,15.47,8.05,17.1.27.2,1.44-.13,2.01,0-.17.33.27,1.33-.06,1.92-3.6.73-6.25-1.38-8.5-3.92h-1.49c.72,4.68-5.61,5.05-9.06,6.03-1.14-2.65-3.47-6.32-5.03-10.06,2.36-2.92-1.82-6.33-1.97-6.76-1.96-5.86-1.36-9.56-6.08-13.36-2.8-2.26-2.77-6.22-4.02-9.05l1.01-1.01c.55,1.1,3.96,2.85,3.03,6.03l6.53-3.01,1.49,2-1.86-3.5.87-1.93-2.04-1.09,1.03-2.54c.22-.21,4.99,3,4.01-1-4.35.79-6.77-1.37-10.06-3.02.55-.14,1.36.1,2.01,0l-1-4.01,7.04,1Z"/>
  <path class="st5" d="M577.36,309.84c-17.48,20.21-27.56,41.75-42.25,63.37-.61.9-3.63,3.07-3.73,3.3-1.01,2.39.35,6.81-4.32,6.76v-3.01c3.27-4.99,4.16-11.53,6.03-17.1.1-.3-.1-.71,0-1.01,2.46-2.45,4.46-5.43,4.02-9.05.32-.8.76-1.42,1.01-2.01l1.01-2.01c.12-.28-.12-.73,0-1.01h2s0-2.51,0-2.51l-1-.51c2.13-4.53,4.66-8.71,7.04-13.08l6.8-7.24-.74-1.76c.64-.22,1.45.09,1.99-.05.47-.14.9-.53,1.01-1.01.13-.59-.09-1.37,0-2.01,3.35.07,6.84,4.2,1.49,2.03l-.48,3c3.03-.12,5.14-2.08,7.04-4.02.33-.34.69-.65,1.01-1.01,1.2-1.36,1.36-3.27,2.01-4.02.45-.53,2.16-.69,2.91-1.11l-.92-1.9h3.04s-1.01-4.02-1.01-4.02c2.59.5,4.76-2.37,6.04,1ZM562.78,324.93v1.01c.65-.34.65-.67,0-1.01Z"/>
  <path class="st0" d="M341.99,248.48l-4.02-3.01c7.18-.97,14.4-1.28,21.66-1.06,4.72.15,14.68.86,18.82,2.12,3.32,1.01,2.07.43,6.14.99,2.82.39,6.29,1.38,8.69,2.97l-3.03,4.53,4.03.5c-2.65,2.73-1.35,3.9-1.01,7.03.11.96-.19,2.19,0,3.02-2.28,2.48-5.19,1.51-8.05,1.01-2.01-1.53-6.07-3.84-7.04-5.03-1.95-2.4-6.12-4.53-10.27-6.33-6.9-3-12.07-4.49-18.9-5.74-2.33-.43-4.75-.38-7.04-1.01Z"/>
  <path class="st29" d="M806.7,648.81c-1.08,3.7,2.99-.52,1.99,2.49-.23.7-1.26,1.45-.99,2.55l-3-1.01c-1.23,2.61,1.85,3.47,2,4.02,1.88,6.94-.04,36.62,0,46.27l-3.01,1.01-.02-6.04c-.66.02-1.34-.05-2.01,0,4.48-1.98.05-3.75-1.01-6.03h4.03s-.02-10.07-.02-10.07l-12.06,1.01c-.03-.3-1.69-1.47-1.01-3.01,10.2.26,5.38-4.42-.51-7.02l-1.49,1.97,1.92.43-2.93,4.61v-23.13c.54-.06,1.73-1.41,2-1.01l2.01,6.03,2.01-6.02-3.01,2,1.01-3-3.02-2.01,4.02-4.03c4.35.02,8.73-.01,13.08,0ZM796.63,659.87v-2h-.99v2h.99ZM801.66,667.92c2.74-6.25-6.15-3.1-9.03-1.99-.41,1.72,1.44.63,1.8,1.11.24.31-.72,1.63-.49,2.23.7,1.83,2.55,2.26,2.19,4.68.24-1.53,3.28-2.98,3.37-3.2.5-1.19-1.98-3.46.66-4.83l1.49,2Z"/>
  <path class="st3" d="M269.57,685.03c-.14.64-.87,1.38-1.01,2.01l-2.01-1.01v-1.01h3.02Z"/>
  <path class="st3" d="M266.55,685.03c-.02.51-.35-.34,0,1.01.34,1.28-.68,2.45,2.01,2.01-.3,1.3-.67,2.72-1.01,4.02-.15.58.15,1.43,0,2.01-3.79-.29-3.38,6.7-4.02,9.05-.09.31.09.7,0,1.01l-1.92.07-.09,4.96c-.27.89-.79,1.44-1.01,2.01l-.99-1c-1.86,2.78-1.36,6.73-2.02,9.05-2.02,7.04-5.4,12.68-8.05,19.11h-1.01v-1.01c1.93-2.23,3.01-5.05,3.01-8.05l-3,1.02,2,1.49-5.03,3.53-4.01-1.01c-.42.52.49,2.49,1,3.02l-5.02-1.49c1.11-2.24,5.09-2.82,6.03-4.54,4.87-8.99,10.16-28.73,14.32-39.5,1.87-4.84,5.06-10.31,6.81-14.82-.9,2.78,2.46,4.16,2.89,5.69.31,1.11-.87,1.99-.88,2.35ZM249.96,720.23v1.01c.65-.34.65-.67,0-1.01ZM250.46,724.24l2.51,1,1.5-2.48-1.52-1.51h-1.49s-1.01,3-1.01,3ZM249.96,725.26v1.01c.65-.34.65-.67,0-1.01Z"/>
  <path class="st8" d="M365.13,651.83v1.01c.2.81-.57.7-1.01,1.01l-.5-.99-1.51,1.99c-5.86.79-13.26-1.73-19.55.1l-.57.91-1.01,32.19c-.25-10.7.19-21.48-.01-32.18-1.76-.24-.95,2.28-1,3.51-.17,4.17.02,8.41,0,12.58l-1.99,3.01c-.02-.7-.35-1.85-1.03-2-.45-.1-5.52,1.01-7.04,0l5.01-5.53-8-3.55c.76-3.02,4.82-3.69,3.99-7.01l-6.03,1.01,1.01,15.08c-.15-.95-1.35-4.04-2.01-5.03-.24-5.39.03-11.28-3.02-16.09l1.01-3.01c10.93-.44,21.87.2,32.68.8,4.27.24,5.65-1.77,10.57,2.21ZM331.43,663.9v1.01c.65-.34.65-.67,0-1.01Z"/>
  <path class="st7" d="M598.49,661.89c.15.01.53.89.99,1.02l.02-14.09,13.09.48-1.02,5.55c-.09.31.09.7,0,1.01-2.41-.44-6.1,8.35-4.02,10.06-3.39,8.39-8.21,18.68-12.07,28.16l-5.15.68.11,7.36h-4.02s1.99-2.51,1.99-2.51c-1.7-2.38-1.69-.86-3-.5.38-2.77,1.37-5.31,2.01-8.05.07-.32-.07-.68,0-1.01,4.48-.18,1.81-2.64,2.01-5.03.03-.33-.04-.67,0-1.01h2.01s0-4.02,0-4.02c.93-2.28,1.86-6.27,2.61-8.14,1.22-3.05,3.06-5.93,3.49-9.41.16-.5.46-.59.94-.55Z"/>
  <path class="st11" d="M516.01,647.81c4.26,2.85,19.02-.93,21.94,2.24.46.5.05,1.42.19,1.78.32.79,1.01,1.5,1.07,2.43-3.45,1.48-1.03,1.24-1.07,1.59-.63,5.86-.68,6.88,1.01,12.07-.74,1.59-2.77,2.27-3.68,3.26-.26.29.61,1.82-.25,2.29-2,1.1-5.56-.19-7.14,2.5-1.22-2.38-1.23-6.06-5.03-6.04-1.99-4.58-3.4-9.46-5.64-13.97-1.8-3.61-5.63-4.88-3.39-9.17.88-.38,1.89,1.03,2,1.01Z"/>
  <path class="st26" d="M665.88,648.81h49.29c-.31,1.55.43,7.47,0,8.05-.12.16-1.43-.27-1.8.15l.8,1.85c-.43.31-6.73-1.54-7.38-1.98-1.07-.73.07-3.72-4.26-3.97-.47-.03.06,1.87-1.93,2.04-3.6.3-13.16-4.19-13.6.91-4.42-.21-14.23-1.14-18.11,0-4.94,1.45.03,7.11-5.03,7.04-1.18-3.04-.24-4.06-4.03-4.53l4.02-2.51-5.02,1,.93-2.43-1.54-1.42-2.26.59-.15-1.75h-2s-.53,2.76-.53,2.76l1.55-.25-2.02,4.51c-.75-1.73-3.61-8.93-1.9-9.96l14.98-.1Z"/>
  <path class="st18" d="M193.12,647.81c2.24.63,2.42.79,5.03,1.01-1.86,5.13,9.44,5.68,9.05,4.53l-2-4.53c4.53.44,4.63,1.09,8.05,4.02-.54,5.65,3.29,14.74,5.34,20.3.95,2.58,4.91,5.08.69,6.85-.36-.11-4.04.98-5.04.53-2.6-1.58,1-3.69.99-4.06-.02-.6-3.61-1.61-3.01-3.5l-1.08,1.94-2.88-.87-1.05,1.93-6.04-8.03v6.04s1.99-1.02,1.99-1.02l2.03,9.06,1.99-2c1.44,1.61.07,5.5.23,5.87.07.15,1.58.1,2.11,1.41.51,1.26.17,7.25.7,7.81l2.51-.86,2.51,2.85-1.92.07-1.09,3.96c-2.29-5.5-4.48-8.86-6.04-15.09-.11-.44-.58-.82-1.01-1.01-5.17-8.71-7.94-21.47-12.81-30.9-1.18-2.28-5.34-3.23-3.27-7.31,1.9-.83,3.13.75,4.02,1ZM210.22,652.85c-3.37-2.56-2.15,7.49-2.02,8.03l-1-3.02-2.99,1.51c2.11,3.7,2.89,3.4,7.02,3.52l-.92-2.57,1.93-.94c-4.57-.52-1.68-6.28-2.01-6.53ZM202.09,660.96l-2.92-.08v5.04s2.43-1.04,2.43-1.04c.96,2.41,1.48,1.29,3.59,2.04v-3.03s-1.98,1.01-1.98,1.01l-1.12-3.95ZM210.21,666.92l-.49-3.01-1.49,1.5,1.98,1.51ZM207.2,667.92v-2h-.99v2h.99ZM212.23,670.94l-.49-4.01-2.5,2.51,1.5,1.5h1.49Z"/>
  <path class="st9" d="M323.89,702.12c3.46-1.09,8.2-.43,6.03,4.02,1.41-.14,3.08.32,4.38.02,1.19-.27,0-2.46,1.65-2.02.25,1.17-.78,2.13-1,3.01-1.67.05-3.36-.05-5.03.01l1.01,2c-.45.06-2.42.76-3.02,1.01h-3.02c2.05-3.61-.9-6.9-1.01-8.05Z"/>
  <path class="st9" d="M334.95,707.15c1.01-.03,2.02.05,3.02,0v-6.04s2,0,2,0c.07.65-.08,1.35,0,2s-.09,1.35,0,2.01c.66.08,1.35-.06,2.01,0-.68,12,.89,24.92.07,36.81-.14,2.03-.17,2.47-2.08,3.43-1.64-.55-4.22-2.88-5.02-.49-1.1,3.28,2.07,2.18,2.01,3.01l-2.02,1.5,3.01,1.53-2.01,2.51c-.19,0-.73-.67-1.52-.66-1.52.02-4.33,2.29-6.78,1.45-6.21-2.13-2.24-8.78-1.78-13.41.19-1.88.91-4.05-1.99-3.47.1-2-.06-4.03,0-6.04l5.02-1,1.52,6.04.64-1.82,1.87.82v-3.04s5.34.86,5.34.86l2.18-1.81-1.38-7.68,1.91-1.41-1.91-.42c.43-1.92,1.75-5.52,1.79-7.2,0-.33-3.51-1.31-1.89-5.47-.65.06-1.41-.11-2.01,0s-.88.45-1.01,1.01l-1.01-1.01c.09-.64-.14-1.45,0-2.01ZM325.4,734.31v1.01c.65-.34.65-.67,0-1.01Z"/>
  <path class="st26" d="M778.54,647.81c.84,1.18,1.82.92,3.02,1.01l-1.99,5.54c.72,1.1,1.31,1.23,2.47,1.53,4.14,1.08.05-3.8,5.55-3.05l-4.02-4.01c3.34.08,6.72-.01,10.06,0l-4.02,4.03,3.02,2.01-1.01,3,3.01-2-2.01,6.02-2.01-6.03c-.27-.4-1.47.94-2,1.01-13.75,1.64-25.38-4.21-36.21,8.05l-2.01-6.04c-.02-1-.03-2.02,0-3.02l1.96-6.58,12.12-1.46c.34,0,.67,0,1.01,0,1.88,1.69,7.18,1.69,9.05,0,.34,0,.67,0,1.01,0l.53,1.01,1.48-1.01c.29,0,.79,0,1.01,0Z"/>
  <path class="st19" d="M571.33,732.3c.82-1.62,2.11-2.99,2.02-5.03,4.81,4.42.83,12.6-.02,18.1l-1.51-2.06-3.13,1.02-1.36,3.57,3.99-.53c-1.74-.15-2.05,1.66-3.28,2.34-1.59.87-3.34-2.01-2.75,2.2l6.04-.5c-.31.96.23,2.83-.01,4.02-5.16-3.61-3.51-.31-4.67,0-1.4.37-6.19.25-7.41-.48-.73-.44-5.62-12.45-6.55-14.62-.61-1.43-.2-3.37-.48-4,3.45-.97,9.78-1.35,9.06-6.04h1.49c2.25,2.55,4.9,4.66,8.5,3.93.33-.59-.11-1.59.06-1.92ZM573.84,737.33v1.01c.65-.34.65-.67,0-1.01ZM566.29,745.39h-3.01v.99h3.01v-.99Z"/>
  <path class="st5" d="M684.99,244.46c1.45,1.21,3.68.6,3.02,3.02-5.46.57-13.48,2.31-18.89,3.74-12.72,3.36-24.09,10.12-36.43,14.37.12-.12-.37-1.23.25-1.79.86-.78,3.99.35,3.77-4.24,1.14.1,1.98.69,3.01,1.02l.02-3.03,4.01,2-2.01-5.01,4.03-.52v-5.51s-7.03,1.56-7.03,1.56c-1.05.52-1.54,1.48-2.04,2.46-3.23-1.95-7.67-.02-11.06,1.01-.59-2.72,1.38-1.93,2.99-2.5,20.23-7.13,35.09-8.49,56.36-6.56ZM658.83,245.47c-2.94-.88-5.14,2.88-5.47,2.88-1.37-.02-3.57-1.93-5.66-.44-2.83,2.03-1.26,8.95,4.4,7.46,1.15-.3,1.89-2,2.7-2.24,1.25-.37,7.52-1.09,8.02-1.69l.03-2.96-1.5,2.02-1.09-2.13-3.43,1.11,2-4.02Z"/>
  <path class="st0" d="M329.92,680c1.35.39,2.44,2.11,3.53,3l-.52-2.99,7.05,2.01c.07,3.35-.71,11.77,0,14.08.26.86,2.53,1.56,3.02,3.02.17.5-.11,1.39,0,2.01-.3.12-1.26,2.5-3.02,2.01-.08-.65.06-1.35,0-2h-2s0,6.03,0,6.03c-1,.04-2.01-.04-3.02,0,.22-.88,1.25-1.84,1-3.01-1.65-.44-.46,1.75-1.65,2.02-1.31.3-2.98-.16-4.38-.02,2.17-4.45-2.57-5.11-6.03-4.02-.16-1.77-.16-8.33,0-10.06.18-1.97,1.88-8.53,3.19-9.89l.83.31,2.01-2.49ZM335.45,681v1.01c.65-.34.65-.67,0-1.01ZM333.44,703.13v1.01c.65-.34.65-.67,0-1.01Z"/>
  <path class="st0" d="M334.95,707.15c-.14.56.09,1.37,0,2.01-1.3.12-2.75-.18-4.02,0l-1.01-2c1.67-.06,3.36.04,5.03-.01Z"/>
  <path class="st23" d="M334.95,709.17l1.01,1.01,1,2.01v-3.01c.6-.12,1.37.05,2.02,0-1.62,4.16,1.9,5.14,1.89,5.47-.05,1.68-1.36,5.28-1.79,7.2l1.91.42-1.91,1.41,1.38,7.68-2.18,1.81-5.32-.86v3.04s-1.88-.82-1.88-.82l-.64,1.82-1.52-6.04-5.02,1c.18-6.14-.27-12.33.13-18.47.36-1,2.83-2.21,3.89-2.65.59-.25,2.56-.94,3.02-1.01,1.27-.18,2.72.12,4.02,0Z"/>
  <path class="st15" d="M706.11,710.17c.35,1.95.48,3.64-2,3.02.66-4.83-5.84-8.05-9.57-8.05h-25.65v40.23h34.7c3.35,0,12.36-5.61,15.14-8,1.77-1.53,2.42-5.45,4.49-3.55l-3.47,20.68c-1.13,1.67-14.58.91-17.67.94v-2.01c1.92.04,15.21-.34,15.9-1.2,1.51-1.89.12-6.16.38-7.35.13-.61,1.62-.41,1.75-1.14.21-1.17-.69-3.75.07-5.39-2.64-.06-4.42,4.42-6.36,5.69-3.01,1.97-6.14,1.96-9.2,2.39-7.8,1.12-17.49,1.59-25.36,1.57-2.67,0-9.28.12-11.39-.61l-1.01-1.01c-.26-.18-.89-.8-1.01-1.01-.55-1.04-1.32-1.62-1.01-3.02l2.02-.5-2.02-1.51v-1.01l1.01-10.06v-1.01c.13-.16.87.16,1.01,0l.98-.5-.98-1.51c.2-2.86.08-8.76,0-12.07v-1.01c-.13-.62-.78-1.35-1.01-2.01l1.79-1.62c-.75-2.45-.52-4.05.22-6.43h1.01c1.64,1.95,3.8-.02,4.02,0,.33.03.67-.02,1.01,0,3.62.22,7.46,1.55,12.07,1.01.64-.08,4.81-.87,5.03-1.01,1.22.94,2.62.79,4.02,1.01,3.55.54,5.67,1.84,9.05,2.01l1-10.06c-.46,4.96.18,9.45,1.02,14.08Z"/>
  <path class="st27" d="M652.8,716.21c.01.68,2.32,6.82,2.02,7.03l-3.03.02,2.03,1.49v2.03s-2.03,1.49-2.03,1.49l2.05.67c-.77,4.07-.07,8.28.33,12.36.18,1.79-1.36,2.38,1.63,2.08-.13.28.13.74,0,1.01-.08.17-.7.48-1.01,1.01-.14.25.14.73,0,1.01-1.01,2-.4,3.13-2.98,2.48l-.03,4.56,3.55-.03-.53-1.97c3-.96,5.07,1.32,7.38,1.74,2.38.44,5-2.6,7.7-1.74v3.01s3.02,0,3.02,0l.51-3.04.52,3.04,7.52-2.06.93,1.96,6.12-.92c-.72-4.96,1.86-.16,4.03,1l.51-3.01c1.69-.43.43,1.7,1.61,1.98.6.14,6.04,0,7.43.03v2.01c-19.43.17-38.91-.12-58.33,0-.26-3.13,2.97-1.71,5.05-4.5,3.65-4.88,1.65-24.99,1.94-32.29.05-1.3,1.04-2.3,1.05-2.43h1.01Z"/>
  <path class="st10" d="M822.79,647.81l19.11,1.01c-.02,3.52.06,7.07,0,10.6-.02,1.45-1,2.93-1.01,3.47-8.77-9.92-22.41-4.87-34.2-6.04-.15-.55-3.23-1.41-2-4.02l3,1.01c-.27-1.1.76-1.84.99-2.55,1-3.01-3.07,1.2-1.99-2.49,1.68,0,3.35,0,5.03,0-.91,2.85-3.13,3.08-2,7.04l15.54.06.55-3.09,5.02,1c.33-2.25-2.42-4.46-4.46-4.09-.82.15-.79,2.14-1.54,2.58-1.49.89-3.28.13-4.33.56-.9.37-.69,1.68-1.39,1.88-.83.23-3.91-.7-5.37.07l1.78-1.15,1.23-4.87c1.77,0,3.37,1.64,5.03-1.01.34,0,.67,0,1.01,0Z"/>
  <path class="st3" d="M499.91,738.34c.92-.4,3.39,1.02,3.03-1.99h1.99c.12,1.64-.14,3.36,0,5.01.36,4.05-.25,3.02-.48,5.55-.23,2.55.34,5.69-.58,8.47-1.36,1.33-13.38-.96-16.04-.95l.99-2.56-1.92-.9.93-3.58c.61.22,1.69,1.3,2,1-1.24-6.5,5.9-4.23,8.85-6.24.95-.65.79-2.86,1.22-3.82Z"/>
  <path class="st15" d="M452.64,725.26c0,.13.98.87,1.06,2.41.3,5.86-.33,11.84-.05,17.71h30.68c2.8,0,12.06-5.51,15.59-7.04,1.42-3.19,5.21-5.52,8.04-8.05l-3.01,11.06c-.15-1.65.11-3.37,0-5.02h-1.99c.35,3.02-2.11,1.61-3.03,2.01-.43.97-.27,3.17-1.22,3.82-2.95,2.01-10.09-.27-8.85,6.24-.31.3-1.39-.79-2-1-.3-.11-.72.11-1.01,0-.12-.5-.51-.91-1.01-1.01-3.6-.65-2.43,1.83-4.46,2.09-7,.91-14.85-2.17-21.26.87-.83-4.24-4.56-.4-6.27-1.12-1.66-.71-6.48-8.74-2.29-9.32l-1.02-2.99,2.1-.61c.37-1.61-1.39-.42-1.97-1.73-.38-.86-.26-2.22-.5-3.22l2.47-5.1Z"/>
  <path class="st7" d="M285.66,649.82c-3.14-.51-2.51,2.95-3.02,5.03-.08.32.09.7,0,1.01-4.23,2.98-2.2,6.03-6.04,10.06-.83.87-.73,2.15-2.43,2.03-2.06-.15-4.57-1.02-2.87-2.78l-2.75-.26c1.1-4.51,3.36-8.31,1.01-13.08.98-2.06,1.46-1.82,3.44-2.07,3.47-.43,10.12-1.44,12.66.06Z"/>
  <path class="st28" d="M706.11,710.17c-.84-4.63-1.47-9.11-1.02-14.08l-1,10.06c-3.38-.17-5.5-1.47-9.05-2.01l.51-2.99-4.36.23c-.32.48-.06,1.68-.18,1.75-.22.14-4.39.93-5.03,1.01-1.43-2.35-3.73-.22-5.03-3.02l2.01-4.02c2.48.14,5.75-.66,5.04,2l1.61-2.09c4.54,1.45,6.62.41,10.44-1.93,2.12-1.3,4.81-2.07,4.03-5.03,2.53-2.93,2.17,18.72,2,20.12Z"/>
  <path class="st28" d="M339.98,745.38c.48.16,1.05.75,2.01,1.01,5.33,1.42,14.83,1.18,21.12,2.01.52.07,1.34.86,2.01,1.01l2.01-2.01c.33.01.68-.04,1.01,0v3.02c-.42.88-1.49,1.49-1.01,3.02-1.09-.03-2.56-.26-3.02,1.01-2.61-.85-4.34-1.39-5.53-4.04l-1.14,2.08c-3.17.76-6.11-3.02-6.9.98l-2.02-.03-2.04-3.05-2.95,1.05.46,2c-2.28-.64-4.96.79-6.8.77-.94,0-1.17-.76-1.24-.76l2.01-2.51-3.01-1.53,2.02-1.5c.06-.82-3.11.27-2.01-3.01.8-2.38,3.38-.05,5.02.49Z"/>
  <path class="st4" d="M374.18,647.81c.33.03.67-.04,1.01,0,.17.02,1.1.91,2.43,1.05,3.06.33,6.52-.32,9.64-.04v8.05s-2-1.02-2-1.02l-1.01,5.04c-1.16-.82-6.85-3.69-8.05-4.02l.57-1.05-11.63-2.97v-1.01c.43-1.83,8.01-5.18,5.02-1.01l2.02-3.01c.33.03.67-.03,1.01,0s.67-.03,1.01,0Z"/>
  <path class="st15" d="M403.35,251.5c0,.9-.19,1.53-1.01,2.01-.7-1.52-2.7-.96-4.02-1.01-.67-.03-1.34.02-2.01,0h-1.01c-.29-.99-1.22-1.49-2.01-2.01-2.4-1.59-5.88-2.58-8.69-2.97-4.07-.56-2.82.03-6.14-.99-4.15-1.26-14.1-1.97-18.82-2.12-7.26-.23-14.48.08-21.66,1.06l4.02,3.01-14.08-3.01c25.97-5.5,50.7-2.84,75.43,6.03Z"/>
  <path class="st5" d="M664.87,665.91c.2.14,1.27-.27,1.76.2.85.81.72,3.13,2.26,3.83v1.01l-2.75,5.76,2.75,6.31c.03,3.01-.06,6.04,0,9.05-.67.04-1.35-.05-2.01,0-2.23.18-3.83.39-5.56,2l-2.42-2.06c-1.02-3.45,2.16-.32,2.94-2.46l-2-1.49,5.02-1.53-.71-2.5-1.3-.51,2.01-.96c-1.35-2.14-1.77-4.69-3.01-6.88-.71-1.25-2.91.36-1-3.72-1.76,1.07-1.81.37-3.01,0l.98-.49c-1.02-1.59-.73-3.09-2.99-2.53v-1.01c3.17-.35,3.08-1.2,7,.97l2.05-2.98ZM665.38,690.05v1.01c.65-.34.65-.67,0-1.01Z"/>
  <path class="st27" d="M323.89,737.33c2.9-.58,2.18,1.58,1.99,3.47-.46,4.63-4.43,11.29,1.78,13.41,2.45.84,5.27-1.43,6.78-1.45.78,0,1.33.67,1.52.66.07,0,.3.75,1.24.76,1.84.02,4.52-1.41,6.8-.77l-.46-2,2.95-1.05,2.04,3.05,2.02.03c.79-4,3.73-.22,6.9-.98l1.14-2.08c1.19,2.65,2.92,3.18,5.53,4.04.72.24,1.64,0,2.01,1.01-16.41.12-32.87-.08-49.28,0-.62-3.05,2.27-1.6,4.08-3.44,3.1-3.17,2.75-10.51,2.96-14.66Z"/>
  <path class="st3" d="M389.27,740.35c1.42-.68,2.15-2.39,4.02-2.01-1.15,3.4-.29,9.27-1,12.07-.94,3.67-7.04,3.87-10.06,2.01,1.31-7.87-6.45-3.31-9.63-3.41-1.39-.04-2.21-1.59-2.44-1.62,1.94.51,3.5-.67,5.03-1.01,5.19-1.15,9.11-3.66,14.08-6.04Z"/>
  <path class="st2" d="M346.02,696.09c10.97,0,24.25,2.6,32.19-6.04v22.13c-4.33-5.72-7.08-6.56-14.08-7.04v-2.01c2.88.01,3.55-2.21,4.64,1.07l3.98-.84,1.93,2.78c1.8-.6,2.1-10.84,0-11.03l-4.11,3.9-1.93-.91h2.5s0-.99,0-.99c-5.17,1.18-10.38-.56-15.54.05-2.14.25-3.05,1.64-4.09,1.96-.27.08-.36-3.19-4-2.03-1.14.36-.19,2.32-.5,3.03-.04.1-.88.94-1.01,1.01-.26.13-.72-.13-1.01,0-.46.21-1.52-.2-2.01,0-.11-.62.17-1.51,0-2.01,1.72-.73,3.57-.75,3.02-3.02Z"/>
  <path class="st0" d="M266.55,686.03c-.35-1.35-.02-.49,0-1.01v1.01Z"/>
  <path class="st0" d="M268.56,664.91l2.75.26c-1.7,1.75.81,2.63,2.87,2.78,1.7.12,1.6-1.16,2.43-2.03-1.08,3.68-2.02,7.36-3.02,11.06-5.13-1.05-3.25,4.62-4.02,8.05h-3.02c.01-.37,1.19-1.24.88-2.35-.43-1.53-3.79-2.92-2.89-5.69,1.59-4.09,2.98-7.78,4.02-12.07Z"/>
  <path class="st0" d="M268.56,687.04c-.07.32.07.69,0,1.01-2.69.44-1.68-.73-2.01-2.01l2.01,1.01Z"/>
  <path class="st17" d="M372.17,647.81l-2.02,3.01c2.99-4.16-4.59-.82-5.02,1.01-4.91-3.97-6.3-1.97-10.57-2.21-10.82-.6-21.75-1.24-32.68-.8l-1.01,3.01c-1.71-2.7-4.17-2.24-4.02-5.02,1.93-.2,3.69,1.01,5.58,1.04,16.53.23,33.53-1.33,49.74-.04Z"/>
  <path class="st14" d="M449.62,647.81c3.69-.27,7.4-.13,11.06-1l-6.25,6.3c-.97,3.92-1.53,8.8-1.79,12.81v1.01c-.28,6.67.2,13.44,0,20.12v3.02c0,2.68-.01,5.37,0,8.05l-2.01-1.01c.13-.53-.05-1.36,0-2.01v-1.01c.04-.66-.06-1.35,0-2.01v-2.01c.25-2.8,1.02-5.31,1.07-8.55.16-10.39-2.24-20.8,1.84-31.12l-3.92-2.58Z"/>
  <path class="st17" d="M665.88,647.81v1.01l-14.98.1c-1.71,1.03,1.15,8.23,1.9,9.96.38.87-.48,2.31,2,2.03l-1.89,1.07.9,5.95c-.55.14-1.37-.12-2.01,0-.18,1.28.22,2.84,0,4.03-2.76-7.64,1.99-20.7-8.04-23.63,6.28-3.6,15.2-.64,22.12-.51Z"/>
  <path class="st17" d="M687,655.86c.44-5.09,10-.61,13.6-.91,1.99-.17,1.46-2.06,1.93-2.04,4.34.25,3.19,3.24,4.26,3.97.65.44,6.95,2.29,7.38,1.98l-.8-1.85c.37-.41,1.68.01,1.8-.15h2.01c-.05,1.69,1.1,8.66-1.5,8.05-.35-.08-3.19-3.76-5.2-4.87-8.19-4.53-14.68-3.76-23.47-4.19Z"/>
  <path class="st17" d="M598.49,661.89c-.13-3.01.46-6.14-.45-9.11-.97-3.14-3.38-2.84-4.57-4.97l25.14-1.01-7.04,8.04,1.02-5.55-13.09-.48-.02,14.09c-.46-.13-.83-1.01-.99-1.02Z"/>
  <path class="st2" d="M603.52,349.07c-2.92,6.62-4.93,14.04-7.87,20.8-10.57,24.32-20.98,48.9-32.37,72.74,3.94-13.11,9.12-23.02,14.08-36.21.9-2.4,2.67-4.11,1.15-6.56,2.32-1.92,3.35.79,1.86-3.49.61-.26,2.14.2,3.02,0,.7-1.87-.66-2.92-1.01-4.02-.16-.52.11-1.38,0-2.01.9-.17,2.04.18,3-.01l16.11-41.23c.6.12,1.37-.08,2.01,0Z"/>
  <path class="st5" d="M379.21,752.42c.96.62,1.96,4.49,2.01,0,.21.16.76-.15,1.01,0,3.02,1.86,9.12,1.66,10.06-2.01l1.01,1.01c-.25,1.04-.53,3.79-1.68,4.07-8.49-.03-17-.11-25.48-.04-.37-1-1.29-.77-2.01-1.01.45-1.27,1.93-1.04,3.02-1.01,2.7.08,5.29.7,8.05,0l-1.01-3c.31-.29,4.41,1.61,5.03,2Z"/>
  <path class="st2" d="M808.71,751.41c1.34,1.22,3.17,2.06,5.03,2.02v2s-33.19,0-33.19,0v-2c1.62.34,5.37-1.89,6.04-3.03.11,6.98,3.43,2.38,5.52,2.4.58,0,1.53,1.23,2.83,1.28,4.69.17,9.95.66,13.79-2.67Z"/>
  <path class="st14" d="M716.17,647.81l1.01,1.01c.03.67-.05,1.35,0,2.01l-.99.5.99.5c.05.66-.03,1.34,0,2.01l-1.01,3.02h-1.01c.43-.57-.31-6.49,0-8.05h-49.29s0-1,0-1c.67.01,1.34,0,2.01,0,.34,0,.67,0,1.01,0,9.32.1,18.5-.06,27.62.04,6.55.07,13.12-.14,19.66-.04Z"/>
  <path class="st2" d="M552.22,693.07c-.17.03-.5.91-.99,1.03.93-3.48-1.92-2.84-2.03-3.04-.17-.28-1.23-4.22-2.01-6.04-.75-1.74-1-4.96-1.96-6.49-.51-.81-2.57.8-2.84-1.04,1.88-3.8-2.19-6.3-3.25-9.57-1.68-5.19-1.63-6.21-1.01-12.07l14.08,37.22Z"/>
  <path class="st17" d="M375.19,647.81c4.14-2.66,9.18,1.71,14.08-1.01v18.11c-2.55.31-2.24-2.06-5.03-4.02l1.01-5.04,2,1.02v-8.05c-3.12-.28-6.58.37-9.64.04-1.33-.14-2.26-1.03-2.43-1.05Z"/>
  <path class="st21" d="M480.8,544.21l.02,6.03-3.03,1,4.01,1.01c-5.77-2.14-8.6,5.11-10.2,5.87-.44.21-3.05-1.43-5.24-.72-1.21.39-1.37,2.18-2.39,2.93-.37.27-4.13,2.61-4.29.98,5.28-3.39,8.61-6.91,13.01-10.6,1.18-.99,7.59-6.44,8.11-6.5ZM470.24,555.27v1.01c.65-.34.65-.67,0-1.01Z"/>
  <path class="st28" d="M225.31,734.31c4.07-.14,3.35,5.45,4.11,7.27.36.87,1.48.77,1.82,1.58,1.15,2.69,1.14,6.88,3.57,9.36h7.95c1.4-.87.97-3.49,1.66-5.13s1.1-3.47,3.02-3.02c-.93,2.32-2.16,9.47-4.01,10.58l-9.94.35c-2.3-7.15-5.43-14.01-8.18-20.99Z"/>
  <path class="st21" d="M375.19,746.38c-1.53.34-3.09,1.51-5.03,1.01-.33-.04-.67.03-1.01,0s-.68.04-1.01,0-.67.01-1.01,0-.68-.03-1.01,0c-.73.07-2.62.31-3.02,1.01-6.29-.83-15.79-.59-21.12-2.01,5.94-2.32,13.36-.35,19.66-1.05l13.53,1.05Z"/>
  <path class="st2" d="M528.08,675.97c1.83,3.55,2.36,5.62,4.02,10.06,1.67,4.46,2.89,3.77,3.02,4.02.34.66-.21,3.62,1.01,6.04l-1.01,1.01c-4-9.04-8.12-18.09-12.07-27.16,3.8-.02,3.81,3.66,5.03,6.04Z"/>
  <path class="st2" d="M531.09,440.6c-.63-.11-1.49.16-2.01,0,3.49-4.75-1.9-8.22-2-8.74-1.99-10.09-8.29-18.87-11.74-27.77-.74-1.91-.26-3.79-.34-5.74,4.07,7.34,13.82,26.74,15.6,34.18.63,2.64.72,5.39.49,8.06Z"/>
  <path class="st15" d="M345.01,701.12c.91,1.44.09,2.72,2.29,2.88,3.32.24,9.79-1.24,13.32-1.35,1.15-.04,2.35.47,3.5.48v2.01c-7.15-.49-15.11.68-22.13,0-.66-.06-1.35.08-2.01,0-.1-.66.08-1.37,0-2.01,1.76.49,2.72-1.89,3.02-2.01.49-.2,1.55.21,2.01,0Z"/>
  <path class="st14" d="M436.54,701.12c0,.67,0,1.34,0,2.01,0,1.06,1.01,1.9,1.01,2.01-.08,5.49-1.75,12.17-2.01,17.1-.14-14.73.19-29.52,0-44.26,2.07,7.17.96,15.7,1.01,23.13Z"/>
  <path class="st14" d="M365.13,652.84l11.63,2.97-.57,1.05c-9.97-2.75-23.72-.02-34.2-1.01l.57-.91c6.29-1.83,13.69.7,19.55-.1.34-.05,1.62-.73,2.01-1.01.43-.3,1.2-.19,1.01-1.01Z"/>
  <path class="st17" d="M287.68,647.81l1.01,1.01-3.02,1.01c-2.54-1.5-9.18-.49-12.66-.06-1.97.25-2.46,0-3.44,2.07-1.65-3.33-5.49-1.64-5.02-5.02,7.63.83,15.39.78,23.13,1Z"/>
  <path class="st2" d="M535.12,373.21l-10.07,22.13-2.01-.51c.39-5.75,2.54-10.51,4.04-15.58v4.02c4.67.05,3.31-4.37,4.32-6.76.1-.23,3.11-2.39,3.73-3.3Z"/>
  <path class="st14" d="M668.9,692.07c.03,1.34-.04,2.69,0,4.03l31.19-1.01c-3.82,2.34-5.9,3.38-10.44,1.93l-1.61,2.09c.71-2.67-2.57-1.86-5.04-2-2.07-.12-5.91-.08-8.05,0-.67.02-1.34-.04-2.01,0-.66.04-1.37-.08-2.01,0-.97.13-3.26.62-4.02,1.01l-2.02-1.51,2.05-1.19-.02-3.34c.66-.05,1.35.04,2.01,0Z"/>
  <path class="st20" d="M193.12,647.81l24.13-1c.81,3.27-2.1,1.18-3.11,2.62-.39.55-.82,2.59-.9,3.41-3.42-2.93-3.51-3.58-8.05-4.02-2.29-.22-4.74.19-7.04,0-2.61-.21-2.79-.38-5.03-1.01Z"/>
  <path class="st14" d="M516.01,647.81c4.18-.51,4.6,0,7.54,0h18.11c.37,0,1.48-1.34,2.51-1v1.99s-6.03,3.04-6.03,3.04c-.14-.36.27-1.28-.19-1.78-2.92-3.17-17.68.6-21.94-2.24Z"/>
  <path class="st3" d="M435.54,754.43v-2.51s3.01-2.52,3.01-2.52l2.01,2.01-1,3.01,28.16,1.02c-9.32-.02-20.77.88-29.76.04-1.41-.13-1.7-.76-2.43-1.05Z"/>
  <path class="st14" d="M781.55,647.81c.34,0,.67,0,1.01,0,1.34,0,2.68,0,4.02,0,.34,0,.67,0,1.01,0,2.68,0,5.37,0,8.05,0,1.01,0,2.01,0,3.02,0,1.68,0,3.35,0,5.03,0,.34,0,.67,0,1.01,0h15.09c.34,0,.67,0,1.01,0,.34,0,.67,0,1.01,0-1.65,2.65-3.26,1.01-5.03,1.01-1.01,0-2.01,0-3.02,0-.34,0-.67,0-1.01,0s-.67,0-1.01,0c-1.68,0-3.35,0-5.03,0-4.35-.01-8.73.02-13.08,0-3.34-.01-6.72.08-10.06,0-.67-.02-1.35.05-2.01,0-1.2-.09-2.18.17-3.02-1.01,1.01,0,2.01,0,3.02,0Z"/>
  <path class="st14" d="M447.61,647.81c-.17.02-1.12.92-2.43,1.05-3.39.34-7.2-.32-10.65-.05.03,2.01-.04,4.03,0,6.04-1.15-1.1-1.38-3.02-2.43-4.11-2.06-2.14-5.04-.97-4.61-3.94l20.11,1Z"/>
  <path class="st14" d="M822.79,647.81h20.12s-.02,19.11-.02,19.11c-1.09.4-2-3.79-2-4.02,0-.54.98-2.03,1.01-3.47.06-3.53-.02-7.08,0-10.6l-19.11-1.01Z"/>
  <path class="st14" d="M340.99,688.04c.06,2.37,1.2,5.35,0,8.05h-1.01c-.71-2.31.07-10.73,0-14.08,0-.34,0-.67,0-1.01-.03-1.67,0-3.35,0-5.03,0-1.34,0-2.68,0-4.02.02-4.17-.17-8.41,0-12.58.05-1.22-.76-3.74,1-3.51.21,10.71-.24,21.48.01,32.18Z"/>
  <path class="st8" d="M788.59,680l2.93-4.61-1.92-.43,1.49-1.97c5.89,2.6,10.71,7.28.51,7.02-.69,1.55.98,2.71,1.01,3.01.03.32.01.68,0,1.01l-2,1.01v-4.03s-2.02,0-2.02,0v-1.01Z"/>
  <path class="st29" d="M325.9,672.96c.05.33-.04.68,0,1.01.01.1,0,1.72,0,2.01,0,.44.02,1.91,0,2.01-.09.53-1.4,1.71-1,2,.98.12,2.09-.14,3.02.01.64.1,1.48-.15,2.01,0l-2.01,2.49-.83-.31c-1.31,1.36-3.01,7.91-3.19,9.89-.26-8.01.36-16.14,0-24.14.66.99,1.87,4.08,2.01,5.03Z"/>
  <path class="st15" d="M547.19,434.57c-1.02,6.05-1.78,7.9-4.37,13.75-.65,1.48-1.72,4.94-1.9,5.18-.37.48-1.68.07-1.78.18h-1.01c2.61-6.31,4.97-13.61,9.05-19.11Z"/>
  <path class="st29" d="M788.59,681h2.01s.01,4.02.01,4.02l2-1.01c-.09,2.58-.76,2.94-3.01,2.01l2.01,4.55-2.01.49c3.44,3.12-.71,4.98,0,9.04h-1.01c.01-6.36,0-12.75,0-19.11Z"/>
  <path class="st17" d="M668.9,669.94c-1.54-.7-1.41-3.02-2.26-3.83-.49-.46-1.57-.05-1.76-.2-1.67-1.23-.68-2.17-1.01-3.02,5.06.07.09-5.59,5.03-7.04v14.08Z"/>
  <path class="st21" d="M349.03,249.49c6.83,1.25,11.99,2.75,18.9,5.74,4.15,1.8,8.32,3.93,10.27,6.33l-29.17-12.07Z"/>
  <path class="st2" d="M559.26,451.67c-2.84,9.81-7.35,19.17-12.07,28.16,3.69-9.76,6.07-20.41,12.07-28.16Z"/>
  <path class="st5" d="M273.59,676.98c-.08.31.09.7,0,1.01-1.29,4.55-2.57,10.69-6.04,14.08.34-1.3.7-2.73,1.01-4.02.07-.32-.07-.69,0-1.01.14-.64.86-1.37,1.01-2.01.78-3.43-1.11-9.09,4.02-8.05Z"/>
  <path class="st12" d="M247.44,738.34c.32-.06.68.04,1.01,0h1.01c-.67,1.62-1.1,3.75-2.01,6.04-1.91-.45-2.35,1.42-3.02,3.02l-2.01-2.53c3.06-1.15,2.74-2.71,2.01-5.52.72-.15,1.39-.85,2.01-1.01.3-.08.67.06,1.01,0Z"/>
  <path class="st2" d="M513.99,396.34c-3.3-5.75-7.68-10.43-9.27-17.44l-.79-5.69c3.31,7.4,8.23,14.92,10.06,23.13Z"/>
  <path class="st2" d="M684.99,244.46c5.73.52,11.46.73,17.09,2.02.24,1.75-2.28.95-3.5.99-3.44.13-7.26-.34-10.57,0,.66-2.41-1.57-1.81-3.02-3.02Z"/>
  <path class="st2" d="M393.29,751.41l-1.01-1.01c.71-2.79-.15-8.67,1-12.07-1.87-.38-2.6,1.33-4.02,2.01l7.02-6.55c-2.22,5.45-1.67,12.07-3,17.61Z"/>
  <path class="st14" d="M434.53,574.38c4.47.36,9.09,1.55,14.08,1.01v1.01c-2.53.22-5.06,0-7.54,0h-14.58v-.99c3.24-1.15,4.88-1.27,8.05-1.02Z"/>
  <path class="st17" d="M553.22,695.08c2.38,4.21,5.14,10.45,6.04,15.09-2.78.6-1.88-1.45-2.49-3-1.32-3.38-2.74-6.64-4.18-9.96-.67-1.53-3.03-2.32.63-2.13Z"/>
  <path class="st15" d="M563.28,397.35c2.43,3.32-2,6.3-2.05,6.68-.19,1.51,1.25,3.64,1.05,5.39-.98,0-1.99-.09-2.96.08-.25.25-2.07,5.9-2.42,6.62-.52,1.08-3.14,5.1-3.58,6.16-1.47,3.55-1.11,10.77-6.13,11.28,1.59-8.49,12.05-27.27,16.09-36.21Z"/>
  <path class="st17" d="M502.93,470.78c1.86,2.9,3.97,5.72,5.07,9.04l4.99-3.01-4.53,6.02c-1.75,0-5.2-9.95-5.53-12.05Z"/>
  <path class="st2" d="M547.19,480.84c-1.47,3.92-3.6,6.81-5.03,10.06l-1.01-1.01c1.01-2.94,2.24-5.95,2.02-9.05h4.02Z"/>
  <path class="st20" d="M233.36,711.18c-4.12-5.46-7.06-14.41-9.5-21.17-.5-1.4-2.17-4.89-.56-5.99,4.23,7.36,6.94,19.23,10.06,27.16Z"/>
  <path class="st15" d="M273.59,677.98c.09-.31-.08-.69,0-1.01,1-3.7,1.94-7.39,3.02-11.06,3.83-4.03,1.81-7.08,6.04-10.06-2.11,7.38-5.44,15.35-9.05,22.13Z"/>
  <path class="st21" d="M448.61,575.39c3.57-.39,8.64-2.38,12.29-3.31,1.87-.47,3.18-1.98,2.8,1.29-3.58,1.54-11.03,2.66-15.09,3.02v-1.01Z"/>
  <path class="st17" d="M515,498.94l-1.01,4.02c-3.16,1.41-2.58,4.6-3.34,5.72-.56.82-2.89,1.86-3.37,2.65-.63,1.02-2.04,6.43-2.67,7.41-.14.22-4.1,4.39-4.7,2.33,5.24-7.18,10.41-15.54,15.09-23.13v1.01Z"/>
  <path class="st3" d="M469.74,755.44c2.85-2.53,7.52-1.01,11.06-1.4,1.74-.19,6.64-3.86,6.04.39-5.27.04-11.22,1-17.1,1.01Z"/>
  <path class="st14" d="M764.45,647.81l-12.12,1.46-1.96,6.58c.07-2.67-.05-5.38,0-8.05,4.68-.03,9.4.06,14.09,0Z"/>
  <path class="st17" d="M668.9,670.94c0,4.01-.05,8.06,0,12.07l-2.75-6.31,2.75-5.76Z"/>
  <path class="st17" d="M523.05,485.87c.83,2.11-6.04,10.42-6.04,11.06h-1.01c.92-1.52,1.24-3.62,2.19-5.35.9-1.64,2.61-6.02,4.85-5.71Z"/>
  <path class="st2" d="M539.14,706.15c4.72,3.8,4.12,7.5,6.08,13.36.14.43,4.33,3.84,1.97,6.76-2.77-6.63-6.16-13.13-8.05-20.12Z"/>
  <path class="st21" d="M653.81,706.15l1.99,3.51c-.72,1.78-3.03,4.84-3,6.55h-1.01c.05-1.34-.03-2.68,0-4.02v-6.04c.67,0,1.34,0,2.01,0Z"/>
  <path class="st0" d="M621.62,271.62l-2.17,3.89-1.85-.87c-3.32,1.06-1.53-5.6-.5-6.02l.99,3.98c.95-1.12,2.33-.76,3.53-.98Z"/>
  <path class="st21" d="M482.81,564.32c-2.74-6.54,3.94-1.99,5.02-3.02.66-4-3.14-2.06-.99-6.02,1.7-.44.38,1.83,1.64,2.06.22.04,4.16-.01,4.38-.06-1.28,3.69-6.97,5.54-10.06,7.04Z"/>
  <path class="st17" d="M557.25,318.89l-1.01,1.01c-.09.64.13,1.42,0,2.01-.38.21-.76.94-1.01,1.01-.54.14-1.35-.18-1.99.05l.74,1.76-6.8,7.24c3.17-5.82,6.72-10.81,10.06-16.09v3.02Z"/>
  <path class="st2" d="M267.56,694.08c-.78,2.95-1.98,6.74-4.02,9.05.64-2.35.23-9.34,4.02-9.05Z"/>
  <path class="st17" d="M585.41,699.11c-.55.15-1.38-.1-2.01,0,1.07-2.69.92-6.58,4.02-8.05-.64,2.73-1.63,5.28-2.01,8.05Z"/>
  <path class="st14" d="M452.64,719.22c.02.67-.02,1.34,0,2.01h-1.01v-4.02c.04-.66-.01-1.34,0-2.01v-2.01c-.07-.65.1-1.37,0-2.01l-1.01-1.01c-.05-.33.06-.68,0-1.01l2.01-1.01c.06,3.68-.1,7.39,0,11.06Z"/>
  <path class="st17" d="M542.16,490.89c-3.77,8.56-6.47,13.25-11.06,21.12.12-.62-.18-1.54,0-2.01,2.5-6.64,7.72-13.3,10.06-20.12l1.01,1.01Z"/>
  <path class="st17" d="M539.14,453.68c-1.2,1.42-2.77,11.75-6.04,11.06,1.41-3.75,3.5-7.37,5.03-11.06h1.01Z"/>
  <path class="st2" d="M260.52,711.18c-.9,2.37-.81,5.84-3.02,8.05.66-2.32.17-6.27,2.02-9.05l.99,1Z"/>
  <path class="st21" d="M651.8,698.1l2.09.65-.07,6.39c-.67-.01-1.34,0-2.01,0v-5.03c0-.67,0-1.34,0-2.01Z"/>
  <path class="st21" d="M473.76,568.35c.28,2.87-6.57,3.21-9.05,4.02,2.61-.99,5.59-2.83,9.05-4.02Z"/>
  <path class="st0" d="M472.75,308.83c.11.28-.11.7,0,1.01l-5.04,2.51,5.04-3.51Z"/>
  <path class="st17" d="M616.59,319.9c-1.96,4-3.2,9.05-5.03,13.08-1.55-4.28,2.89-9.6,3.76-13.85l1.27.78Z"/>
  <path class="st15" d="M452.64,705.14c.01,1.01-.02,2.01,0,3.02l-2.01,1.01c-1.05-5.45.04-3.01,1.01-6.04l1.01,2.01Z"/>
  <path class="st19" d="M346.02,696.09c.55,2.27-1.3,2.29-3.02,3.02-.49-1.46-2.75-2.16-3.02-3.02h6.04Z"/>
  <path class="st17" d="M611.56,655.86c-.97,3.13-2.75,6.9-4.02,10.06-2.07-1.71,1.62-10.5,4.02-10.06Z"/>
  <path class="st14" d="M752.38,664.91c-.51.58-.88,2.15-1.02,3.01h-.98c-.06-3,.04-6.04-.01-9.04l2.01,6.04Z"/>
  <path class="st17" d="M533.11,362.14c1.2-3.48,2.87-6.14,4.02-9.05.43,3.62-1.56,6.6-4.02,9.05Z"/>
  <path class="st14" d="M774.51,647.81c-1.88,1.69-7.18,1.69-9.05,0,3.01-.05,6.04.02,9.05,0Z"/>
  <path class="st17" d="M587.42,690.05c.38-1.82-.08-3.85,2.01-5.03-.2,2.39,2.47,4.85-2.01,5.03Z"/>
  <path class="st15" d="M285.66,649.82l-3.02,5.03c.51-2.08-.13-5.54,3.02-5.03Z"/>
  <path class="st17" d="M527.07,380.25v-1.01c1.6-5.42,2.6-11.42,6.04-16.09-1.87,5.57-2.76,12.11-6.04,17.1Z"/>
  <path class="st17" d="M561.27,715.2c-.27-.23-1.82.25-2.01,0-.26-.34.12-3,0-4.03,1.86.52,2.12,2.28,2.01,4.02Z"/>
  <path class="st15" d="M452.64,698.1c0,.34,0,.67,0,1.01-1.06.28-.83,1.21-1.01,2.01-1.24-.64-1.39-2.17-2.01-3.02.2-.38.95-.76,1.01-1.01l2.01,1.01Z"/>
  <path class="st2" d="M263.54,704.14c-.58,1.98-1.54,3.48-2.01,5.03l.09-4.96,1.92-.07Z"/>
  <path class="st17" d="M591.45,680v4.03s-2.01,0-2.01,0c.28-2.6,1.55-2.88,2.01-4.02Z"/>
  <path class="st14" d="M452.64,705.14l-1.01-2.01c.17-.52-.13-1.4,0-2.01.18-.8-.05-1.73,1.01-2.01.01,2.01-.03,4.03,0,6.04Z"/>
  <path class="st1" d="M517.01,496.93c0,.29,1.31,1.14,1,2h-3.02s0-1,0-1c.24-.38.8-.66,1.01-1.01h1.01Z"/>
  <path class="st17" d="M540.15,345.04l1,.51v2.5s-2,0-2,0c.37-.82.49-1.92,1.01-3.02Z"/>
  <path class="st18" d="M482.81,542.19h2.01s-1,3.02-1,3.02c2.71-1.58,2.41,1.14,3.33,1.69.79.47,1.56.24,1.7.33-.22-1.85-.06-2.94,1.52-4l.49,3.99h-2.01c1.45.9,3.34,1.21,3.03,3.02l1.98-1.99c1.49,2.9,1.6,3.5.7,6.54l-1.68-.5c-.23.91.22,2.31-.02,3.01-.22.04-4.16.09-4.38.06-1.26-.23.06-2.5-1.64-2.06-2.15,3.96,1.64,2.02.99,6.02-1.09,1.03-7.77-3.51-5.02,3.02-.42.2-1.11,2.94-2.01,1.01l-.5-2.02c-.97,0-.34,1.26-.5,2.02-.13.61.18,1.79,0,2.01-.07.08-1.17-.64-2.07-.37-1.3.38-2.66.93-3.95,1.38-3.46,1.19-6.45,3.03-9.05,4.02-.27.1-.6.83-1.01,1.01.38-3.27-.93-1.77-2.8-1.29-3.65.92-8.72,2.92-12.29,3.31-4.99.54-9.61-.65-14.08-1.01,1.36-3.19,2.98-.54,5.79-1.67,3.61-1.45,15.08-8.66,19.36-11.41.16,1.63,3.92-.71,4.29-.98,1.01-.74,1.18-2.53,2.39-2.93,2.19-.72,4.8.93,5.24.72,1.6-.77,4.44-8.01,10.2-5.87l-4.01-1.01,3.03-1-.02-6.03c.27-.04.76.69,1.01,1.01-.07,1.31,1.9,1.54,2.01.5l-1-.5c-.78-1.47-.37-1.83,0-3.02ZM478.79,564.31l-2.52-6.02.5,4.02-4-2.01-1.04,3.38,2.07,2.61,5-1.98ZM470.73,564.32v-2h-.99v2h.99Z"/>
  <path class="st17" d="M533.11,465.75c-.81,2.21-1.05,7.58-4.02,7.04,1.26-2.38,2.51-4.81,4.02-7.04Z"/>
  <path class="st27" d="M653.81,705.14c.75.02,2.09-.37,2.02.5.04.89-1.38.5-2.02.5s-1.34,0-2.01,0v-1.01c.67,0,1.34-.01,2.01,0Z"/>
  <path class="st26" d="M717.18,656.86h-1.01l1.01-3.02c.04,1,.03,2.02,0,3.02Z"/>
  <path class="st26" d="M798.65,647.81c-1.01,0-2.01,0-3.02,0,.14-1.51,2.88-1.51,3.02,0Z"/>
  <path class="st15" d="M452.64,690.05v-3.02,3.02Z"/>
  <path class="st15" d="M452.64,724.25c0-.07-.74-.29-.79-1.27-.04-.69.8-1.43.79-1.75-.02-.67.02-1.34,0-2.01,1.6,1.4.49,3.3,0,5.03Z"/>
  <path class="st21" d="M482.81,545.21l1,.5c-.11,1.04-2.07.8-2.01-.5h1.01Z"/>
  <path class="st17" d="M538.13,351.08c.35-.86.76-1.45,1.01-2.01l-1.01,2.01Z"/>
  <path class="st14" d="M777.53,647.81l-1.48,1.01-.53-1.01c.67,0,1.34,0,2.01,0Z"/>
  <path class="st17" d="M515,473.79c1.02-2.32,1.22-1.86,2.01-3.02l-2.01,3.02Z"/>
  <path class="st17" d="M515,474.8c-.09.37-.66.75-1.01,1.01l-1-1h2.01Z"/>
  <path class="st9" d="M480.8,565.33h-1.01c.17-.76-.47-2.02.5-2.02l.5,2.02Z"/>
  <path class="st27" d="M651.8,701.12c-.68-.48,0-.88,0-1.01v1.01Z"/>
  <path class="st7" d="M288.68,648.81l-1.01-1.01c.06,0-.02-1.66,1.01-.51l.99,1.02-.99.5Z"/>
  <path class="st17" d="M374.18,647.81c-.33-.03-.67.03-1.01,0l.5-.99.5.99Z"/>
  <path class="st17" d="M668.9,647.81c-.34,0-.67,0-1.01,0l.5-.99.5.99Z"/>
  <path class="st27" d="M651.8,709.17v-1.01,1.01Z"/>
  <path class="st27" d="M651.8,712.18v-1.01,1.01Z"/>
  <path class="st27" d="M651.8,698.1c0-.34,0-.69,0-1.01v1.01Z"/>
  <path class="st26" d="M782.56,647.81c-.34,0-.67,0-1.01,0l.5-.99.5.99Z"/>
  <path class="st22" d="M206.2,686.03c-.33-.31-.77-.61-1.01-1.01.42.19.9.57,1.01,1.01Z"/>
  <path class="st26" d="M787.59,647.81c-.34,0-.67,0-1.01,0l.5-.99.5.99Z"/>
  <polygon class="st12" points="466.72 299.78 464.73 300.29 466.72 298.78 466.72 299.78"/>
  <path class="st26" d="M717.18,651.83l-.99-.5.99-.5c.03.33-.03.67,0,1.01Z"/>
  <path class="st26" d="M804.69,647.81c-.34,0-.67,0-1.01,0l.5-.99.5.99Z"/>
  <path class="st10" d="M820.78,647.81c-.34,0-.67,0-1.01,0l.5-.99.5.99Z"/>
  <path class="st26" d="M717.18,648.81l-1.01-1.01,1.01,1.01Z"/>
  <path class="st15" d="M452.64,666.92v-1.01c-.01.17.02.6,0,1.01Z"/>
  <path class="st18" d="M454.65,329.97l-.81,1.82,3.82,3.71-2.02,1,2.02,1.5c-4.51,1.3-10.46-.62-10.05-6.01l7.04-2.01Z"/>
  <path class="st0" d="M463.7,318.9c1.37.85-5.14,7.13-5.54,9.02-4.17-2.09,3.23-10.46,5.54-9.02Z"/>
  <path class="st24" d="M495.78,435.7l1.12,2.88c-1.92.41-2.71-1.29-4.02-2.51l2.9-.37Z"/>
  <rect class="st24" x="523.06" y="427.53" width=".99" height="3.01"/>
  <rect class="st24" x="501.93" y="443.62" width=".99" height="2"/>
  <path class="st0" d="M465.21,310.85c.65.34.65.67,0,1.01v-1.01Z"/>
  <path class="st24" d="M492.37,432.55c.65.34.65.67,0,1.01v-1.01Z"/>
  <path class="st9" d="M393.29,262.56c3.47,2.56,2.7-1.89,4.51-1,2.12,1.04.16,3.08.73,3.79l1.8.72-3.01,1.53,2,1.99c-4.04,2.08-5.12-.12-6.03-4.01-.19-.83.11-2.06,0-3.02Z"/>
  <path class="st24" d="M451.64,314.88l-.87,1.9,1.86,1.1c-3.38.28-4.59,3.73-8.04,2.02-.05-4.63,3.33-4.35,7.05-5.02Z"/>
  <path class="st0" d="M402.34,253.51c-1.44.84-1.97,1.51-4.02,1v-2.01c1.32.05,3.32-.52,4.02,1.01Z"/>
  <path class="st0" d="M396.31,252.51l1.01,5.02-1.5.02c-1.55-1.28-.44-4.77-.51-5.04h1.01Z"/>
  <path class="st12" d="M466.22,301.79c.65.34.65.67,0,1.01v-1.01Z"/>
  <path class="st0" d="M398.82,255.52c.65.34.65.67,0,1.01v-1.01Z"/>
  <path class="st19" d="M576.36,406.4l-2.01-5.01,3.04-2.53c-2-1.02-2.42-.78-2.03-3.52h3.01s-.5,2.99-.5,2.99c.77-.69,1.56-1.59,2.51-1.99,1.48,4.29.46,1.58-1.86,3.49,1.51,2.46-.25,4.16-1.15,6.56h-1.01Z"/>
  <path class="st19" d="M573.34,406.4v-3.01s1.5-.01,1.5-.01l.51,3.02c-.66,0-1.36-.06-2.01,0Z"/>
  <path class="st1" d="M526.06,500.96v.99s-4,.52-4,.52c1.06-1.57,2.15-1.76,4-1.51Z"/>
  <path class="st19" d="M571.33,406.4l-1,2.01v-3.01c.18-.02.7.75,1,1.01Z"/>
  <path class="st19" d="M636.71,252.51c.5-.98.98-1.94,2.04-2.46l7.01-1.56v5.51s-4.01.52-4.01.52l2.01,5.01-4.01-2-.02,3.03c-1.03-.33-1.87-.92-3.01-1.02-.61-.06-1.3-.23-1.82.2l-1.71,2.8.59-3.39-2.1-1.13v-1.49c5.98.75,3.98-1.94,5.04-4.03ZM638.22,257.54v1.01c.65-.34.65-.67,0-1.01Z"/>
  <path class="st19" d="M564.29,320.9c-1.9,1.94-4,3.9-7.04,4.02l.48-3c5.34,2.17,1.86-1.96-1.49-2.03l1.01-1.01,2.01,1-.53-1.99,5.56,3Z"/>
  <path class="st19" d="M567.3,315.88c-.65.75-.81,2.66-2.01,4.02-.95-2.13-.72-3.88.01-6.03h.98s1.02,2,1.02,2Z"/>
  <path class="st0" d="M622.12,268.6c.65.34.65.67,0,1.01v-1.01Z"/>
  <path class="st12" d="M242.41,739.35c-1.15,5.02-3.9,5.21-6.01.49l6.01-.49Z"/>
  <path class="st9" d="M245.43,735.32l1.01,3.02c-.62.15-1.29.86-2.01,1.01-.93-3.59-1.38-1.37-2.01-2.01-.51-.52-1.42-2.5-1-3.02l4.01,1.01Z"/>
  <path class="st8" d="M507.96,438.59c.07-.06,0-1.48,1.5-1.01l1.53,3.01,2.01-1.49-1.02,5.52c-2.45.22-3.75-1.89-4.02-4.02-.08-.65.06-1.35,0-2.01Z"/>
  <polygon class="st25" points="522.04 448.65 521.12 454.09 518.02 454.68 518.94 449.24 522.04 448.65"/>
  <path class="st12" d="M470.74,305.82c.58,1.01,1.03.59,2.01,3.02l-5.04,3.51,5.04-2.51c2.16,5.98,2.95,3.13,3.86,4.15.57.64,5.21,12.37,6.49,14.66,7.98,14.22,14.2,29.71,20.83,44.56l.79,5.69c1.59,7.01,5.96,11.69,9.27,17.44.42.73.67,1.41,1.01,2.01.08,1.95-.4,3.83.34,5.74,3.46,8.9,9.76,17.67,11.74,27.77.1.52,5.49,3.99,2,8.74-.54-.16-1.7-1.28-2-1.01l-1.52,4.04c-.49-2.51-2.92-1.84-3.98-3.03-1.99-2.25-1.46-6.41-.54-9.04h-5.03s.51-3,.51-3c-6.37.83-4.71,2.04-7.19,4.92-1.94,2.26-4.24,2.49-3.38,7.12,1.31.28,1.18-1.3,2-2.01.06.66-.08,1.36,0,2.01-2.73,1.77-1.91,3.59-4.06,4.59l1.04,3.45h-6.03c1.66-3.34.05-2.46-1.5-5.02l-4.53,4.02v-10.06s-4,.52-4,.52l-.11-4.93,2.08-1.61-4.01.99c2.1-6.11-4.77-1.98-2.26-6.84l-4.79-3.21c-11.21-24.58-21.68-48.6-32.31-73.6-1.88-4.42-7.05-10.04-6.91-15.93.02-.78,1.46-2.64,1.02-4.02l3,4.02-.99-10.05c8.17,3.31,4.3,1.59,6.24-.74.55-.66,4.59-1.35,5.68-2.49l-.74-9.78,4.99-1.6.42-2.48c5.56,5.48,4.34-3.99,10.57-.02ZM465.21,310.85v1.01c.65-.34.65-.67,0-1.01ZM463.7,318.9c-2.31-1.43-9.71,6.94-5.54,9.02.4-1.9,6.91-8.17,5.54-9.02ZM454.65,329.97l-7.04,2.01c-.42,5.39,5.54,7.32,10.05,6.01l-2.02-1.5,2.02-1-3.82-3.71.81-1.82ZM524.04,430.54v-3.01h-.99v3.01h.99ZM492.37,432.55v1.01c.65-.34.65-.67,0-1.01ZM495.78,435.7l-2.9.37c1.31,1.22,2.1,2.92,4.02,2.51l-1.12-2.88ZM502.92,445.63v-2h-.99v2h.99Z"/>
  <path class="st8" d="M514.5,447.64c.65.34.65.67,0,1.01v-1.01Z"/>
  <path class="st8" d="M513.49,445.63c.65.34.65.67,0,1.01v-1.01Z"/>
  <path class="st12" d="M521.54,443.62c.65.34.65.67,0,1.01v-1.01Z"/>
  <path class="st8" d="M514.5,438.59c.65.34.65.67,0,1.01v-1.01Z"/>
  <path class="st18" d="M444.58,723.25c-1.14,2.98,2.35,3.28,2.64,4.47.13.54.21,5.56-1.12,5.56-2.15.01-.42-3.55-.62-3.79-1.55-1.92-2.74-.52-2.87-5.76l1.98-.48Z"/>
  <path class="st15" d="M451.63,721.24c-2.69-.68-.03-3.59,0-4.02v4.02Z"/>
  <polygon class="st18" points="442.58 730.28 440.57 730.28 439.58 727.76 440.05 727.29 442.58 730.28"/>
  <path class="st15" d="M451.63,715.2c0-.24.01-1.89,0-2.01v2.01Z"/>
  <path class="st29" d="M444.09,700.11c.65.34.65.67,0,1.01v-1.01Z"/>
  <path class="st29" d="M445.09,703.13c.65.34.65.67,0,1.01v-1.01Z"/>
  <path class="st29" d="M445.09,705.14c.65.34.65.67,0,1.01v-1.01Z"/>
  <path class="st15" d="M451.63,711.18c-.02-.12-.94-.54-1.01-1.01l1.01,1.01Z"/>
  <path class="st3" d="M486.84,747.39c-.42-.16-.76-.62-1.01-1.01.5.09.88.51,1.01,1.01Z"/>
  <rect class="st8" x="514" y="522.09" width="2" height=".99"/>
  <path class="st8" d="M570.32,405.4v3.01s1.01-2.01,1.01-2.01c.66-.04,1.35.06,2.01,0,.65-.06,1.35,0,2.01,0h2.01c-4.97,13.19-10.14,23.1-14.08,36.21-1.21,4.01-1.19,5.39-4.02,9.05-6,7.75-8.38,18.41-12.07,28.16-.11.29.11.71,0,1.01h-4.02c.22,3.11-1.01,6.12-2.02,9.05-2.34,6.81-7.56,13.48-10.06,20.12l-3.59,1.06-2.43-1.06c-1.58,2.3,3.16,2.04,2,3-.37.31-1.96.19-2.98,1.64-.91,1.29.03,5.08-1.95,6.77l-5.12.64,2.6-2-.55-2.53,2.97.52c.8-2.71-1.24-1.65-1.72-2.21-.18-.2,0-3.18-2.27-4.35,5.03.85-.76-2.22,0-4.01l2.93.51,1.08-4.01c-3.39-.51-4.64-2.55-8.06-1.02l1.01-4.02h3.02c.31-.87-1-1.72-1-2.01,0-.65,6.86-8.95,6.04-11.06.97-3.74,3.86-8.98,6.04-13.08,2.97.54,3.21-4.83,4.02-7.04.11-.3-.11-.71,0-1.01,3.27.68,4.84-9.65,6.04-11.06.1-.12,1.41.3,1.78-.18.19-.24,1.25-3.7,1.9-5.18,2.58-5.85,3.35-7.7,4.37-13.75.06-.33-.06-.68,0-1.01,5.02-.5,4.66-7.73,6.13-11.28.44-1.07,3.06-5.08,3.58-6.16.35-.73,2.16-6.38,2.42-6.62.97-.17,1.97-.09,2.96-.08.1,0,.3,1.1.82.89.2-.08,1.63-3.05,2.44-3.51.22-.12,4.54-1.37,4.78-1.4ZM526.06,500.96c-1.85-.25-2.94-.06-4,1.51l4-.52v-.99Z"/>
  <path class="st29" d="M595.47,341.02c-.15-1.21-2.17-2.42.53-1,2.53,1.33,2.12,3.32,4.51,4.52-3.84.44-4.15.04-5.04-2.51l.99-.5-.99-.5Z"/>
  <rect class="st13" x="591.46" y="342.03" width=".99" height="2"/>
  <path class="st13" d="M595.47,342.03c-.09-.26.04-.65,0-1.01l.99.5-.99.5Z"/>
  <path class="st19" d="M582.39,390.31c.11.63-.16,1.5,0,2.01-.66-.06-1.37.09-2.01,0,.09.55,1.4,1.76,1.01,2h-4.02s0-3.01,0-3.01c1.03.34,1.88.84,3.01,1.01-.11-.62.05-1.36,0-2.01.65-.11,1.41.11,2.01,0Z"/>
  <polygon class="st19" points="574.34 395.33 572.33 395.33 573.35 392.33 574.34 392.33 574.34 395.33"/>
  <rect class="st19" x="575.36" y="392.33" width=".99" height="2"/>
  <path class="st19" d="M567.81,404.39c.65.34.65.67,0,1.01v-1.01Z"/>
  <path class="st18" d="M652.8,658.87l2.02-4.51-1.55.25.53-2.78h2s.15,1.76.15,1.76l2.26-.59,1.54,1.42-.93,2.43,5.02-1-4.02,2.51c3.79.47,2.86,1.49,4.03,4.53.33.84-.67,1.79,1.01,3.02l-2.05,2.98c-3.92-2.17-3.83-1.32-7-.97-.65.07-1.46-.14-2.01,0l-.9-5.95,1.89-1.07c-2.49.28-1.63-1.16-2-2.03Z"/>
  <path class="st21" d="M672.92,703.13c-.22-.02-2.38,1.95-4.02,0v-1.01l4.02,1.01Z"/>
  <path class="st21" d="M670.91,697.1c-.59,1.67-1.28,3.42-2.01,5.03-.03.06-.74.15-1.01,1.01-.74,2.37-.97,3.98-.22,6.43l-1.79,1.62-2-1c1.38,7.1-5.45,3.83-4.04-1h4.04s-.95-6.59-.95-6.59l2.52-.38c.34-2.38-1.01-2.86,1.44-4.1.76-.39,3.05-.88,4.02-1.01ZM662.37,710.19l-1.5,1.5.47.47c.56-.64,2.03-1.31,1.03-1.97Z"/>
  <path class="st27" d="M657.83,741.35c.33-.66-.65-2.75.5-3.01,1.74,3.16,2.06,5.74,6.54,4.02-.31,1.4.46,1.98,1.01,3.02l-1.01,5.04c-2.71-1.85-7.04,1.79-7.03-3.02l5.01,1,1-3.53c-2.49.14-2.38-.26-4-1.5-.74-.56-1.32-1.38-2.01-2.01Z"/>
  <path class="st18" d="M659.84,743.37c-1.28,3.08-1.36,3.54-5.03,3.02.14-.27-.14-.76,0-1.01l1.01-1.01c.13-.26-.13-.73,0-1.01.58-1.21,1.91-1.8,2.01-2.01.69.63,1.27,1.45,2.01,2.01Z"/>
  <path class="st18" d="M655.82,668.93c2.26-.57,1.97.94,2.99,2.53l-.98.49c-.43-.13-1.42.34-1.86-.15l-.15-2.87Z"/>
  <path class="st27" d="M664.87,739.34v1.01l-3.01,1.01v-2.51c.15-1.32,2.41-.06,3.01.5Z"/>
  <rect class="st21" x="656.84" y="705.15" width=".99" height="3.01"/>
  <path class="st21" d="M661.35,702.12c.65.34.65.67,0,1.01v-1.01Z"/>
  <path class="st21" d="M658.34,710.19c1,.66-.47,1.33-1.03,1.97l-.47-.47,1.5-1.5Z"/>
  <path class="st21" d="M666.88,714.2c0-.27.01-.96,0-1.01v1.01Z"/>
  <path class="st21" d="M666.88,728.28c.06-.08-.06-1.14,0-2.01l.98,1.51-.98.5Z"/>
  <polygon class="st21" points="665.88 729.28 664.89 728.78 665.88 728.28 665.88 729.28"/>
  <path class="st19" d="M792.62,683.01l12.06-1.01.02,10.06h-4.03c1.05,2.27,5.48,4.05,1.01,6.03-3.68.27-1.38-.13-3.02-1.01v-4.02c-1.37-.1-2.72,2.93-3.02,3.02-.43.13-1.69-1.4-2-1.01.28,3-1.42,4.19-4.04,5.04-.7-4.06,3.44-5.92,0-9.04l2.01-.49-2.01-4.55c2.24.94,2.92.57,3.01-2.01.01-.33.03-.68,0-1.01Z"/>
  <path class="st19" d="M794.41,700.4c.16.06.8,2.23,2.22,1.74l-2,1.99,2,.51-2.82,1.7.62,1.69-1.82,1.13,2.07.57-1.15,3.87,2.14,2.04-2.11,5.09,2.05,1.51-4.01,1.02c.31-7.6-3.13-15.95.51-23.12.84-.2,1.49,0,2.28.28Z"/>
  <path class="st0" d="M802.67,729.3l-3.52,5.01-1.49-2c.1,2.83-1.13,4.73-4.03,5.04l6.02,5.52-3.01,1.49,4.02,3.02h-3.03s1.02-2,1.02-2l-2.57.88-3.4-2.48c.11-4.12.87-7.31,2.3-11.15.15-.41,1.62-.55,1.98-1.58.56-1.58-1.1-3.53,1.19-4.77l4.52,3.01Z"/>
  <path class="st0" d="M804.68,718.22l-.47,6.04-5.55.99c.12-4.74,1.01-6.88,6.02-7.03Z"/>
  <path class="st29" d="M798.65,697.1c-.55-.29-2.31.16-3.02-1.01.3-.09,1.65-3.12,3.01-3.02v4.02Z"/>
  <path class="st6" d="M444.6,654.86l-1.01,3c2.08.21,4.7-1.15,4.02,2.01l-5.91,1.91-2.19-2.53,2.21-5.3,2.88.9Z"/>
  <path class="st15" d="M450.62,692.07c.06-.66-.06-1.35,0-2.01v2.01Z"/>
  <path class="st10" d="M436.54,703.13c0-.67,0-1.34,0-2.01v2.01Z"/>
  <path class="st15" d="M450.62,695.08c.02-.33-.02-.67,0-1.01v1.01Z"/>
  <path class="st8" d="M539.14,688.04c3.29,1.65,5.71,3.81,10.06,3.02.97,4-3.8.79-4.01,1l-1.03,2.54,2.04,1.09-.87,1.93,1.86,3.5-1.49-2-6.53,3.01c.93-3.19-2.48-4.94-3.03-6.03-1.22-2.42-.67-5.37-1.01-6.04.62-2.4,2.51-1.62,4.02-2.01Z"/>
  <path class="st8" d="M539.14,667.93c1.06,3.27,5.13,5.77,3.25,9.57.27,1.84,2.34.22,2.84,1.04.95,1.54,1.21,4.75,1.96,6.49l-7.04-1,1,4.01c-.64.11-1.46-.14-2.01,0-.19-.1-.33-1.15-1.42-1.59-1.21-.49-4.12-.06-5.62-.42-1.66-4.44-2.2-6.5-4.02-10.06,1.58-2.68,5.14-1.4,7.14-2.5.86-.47-.02-2,.25-2.29.91-.99,2.94-1.67,3.68-3.26ZM541.66,681v1.01c.65-.34.65-.67,0-1.01ZM544.67,683.01v1.01c.65-.34.65-.67,0-1.01Z"/>
  <path class="st19" d="M555.23,322.92c.25-.06.63-.8,1.01-1.01-.1.48-.53.87-1.01,1.01Z"/>
  <path class="st19" d="M562.78,324.93c.65.34.65.67,0,1.01v-1.01Z"/>
  <polygon class="st9" points="478.79 564.31 473.79 566.29 471.72 563.68 472.77 560.3 476.77 562.31 476.27 558.29 478.79 564.31"/>
  <rect class="st9" x="469.75" y="562.32" width=".99" height="2"/>
  <path class="st8" d="M801.66,667.92l-1.49-2c-2.64,1.37-.17,3.64-.66,4.83-.09.21-3.13,1.66-3.37,3.2.36-2.42-1.5-2.85-2.19-4.68-.23-.6.73-1.92.49-2.23-.37-.48-2.21.61-1.8-1.11,2.89-1.11,11.78-4.26,9.03,1.99ZM796.14,667.93v1.01c.65-.34.65-.67,0-1.01Z"/>
  <rect class="st26" x="795.64" y="657.87" width=".99" height="2"/>
  <path class="st22" d="M248.45,737.33c-.31.35-.71.64-1.01,1.01-.33.06-.7-.08-1.01,0l-1.01-3.02,5.03-3.53-2-1.49,3-1.02c0,3-1.08,5.82-3.01,8.05Z"/>
  <polygon class="st9" points="250.46 724.24 251.47 721.24 252.96 721.25 254.48 722.76 252.97 725.24 250.46 724.24"/>
  <path class="st9" d="M249.96,720.23c.65.34.65.67,0,1.01v-1.01Z"/>
  <path class="st9" d="M249.96,725.26c.65.34.65.67,0,1.01v-1.01Z"/>
  <path class="st9" d="M248.45,738.34c-.33.04-.68-.06-1.01,0,.3-.37.7-.65,1.01-1.01v1.01Z"/>
  <path class="st22" d="M325.9,672.96l-1.01-15.08,6.03-1.01c.83,3.31-3.23,3.99-3.99,7.01l8,3.55-5.01,5.53c1.52,1.02,6.59-.09,7.04,0l-2.01,4.02-1.98-.06-.46-1.87c-1.45.95-2.96.9-4.6.93-.09-.64.1-1.36,0-2.01h-2.01c-.04-.33.05-.68,0-1.01Z"/>
  <path class="st22" d="M339.98,681c0,.34,0,.67,0,1.01l-7.05-2.01.52,2.99c-1.09-.88-2.18-2.6-3.53-3-.53-.15-1.37.1-2.01,0,0-.67,0-1.34,0-2.01,2.6-.22,4.49-.47,7.04-1.01,1.14-.24,2.1-.79,3.02-1.01-.04,1.9.29,3.94,2.01,5.03Z"/>
  <path class="st22" d="M327.91,675.97c.09.62,0,1.36,0,2.01-.66.06-1.35-.04-2.01,0,.02-.1,0-1.57,0-2.01.67,0,1.34.01,2.01,0Z"/>
  <path class="st0" d="M327.91,677.98c0,.67,0,1.34,0,2.01-.93-.15-2.04.11-3.02-.01-.39-.29.91-1.47,1-2,.67-.04,1.35.06,2.01,0Z"/>
  <path class="st0" d="M339.98,675.97c-.64.09-1.44-.14-2.01,0-.92.22-1.88.76-3.02,1.01l2.01-4.02c.68.15,1,1.3,1.03,2l1.99-3.01c0,1.34,0,2.68,0,4.02Z"/>
  <path class="st0" d="M325.9,673.96h2.01c.1.66-.09,1.37,0,2.01-.67.01-1.34,0-2.01,0,0-.29.01-1.91,0-2.01Z"/>
  <path class="st0" d="M327.91,675.97c1.64-.03,3.15.03,4.6-.93l.46,1.87,1.98.06c-2.55.54-4.44.78-7.04,1.01,0-.65.09-1.39,0-2.01Z"/>
  <path class="st17" d="M364.12,653.84c-.39.27-1.68.96-2.01,1.01l1.51-1.99.5.99Z"/>
  <path class="st22" d="M331.43,663.9c.65.34.65.67,0,1.01v-1.01Z"/>
  <path class="st7" d="M583.89,702.15c.56.64,2.03,1.31,1.03,1.97-.48-.59-2.02-1.27-1.03-1.97Z"/>
  <path class="st9" d="M205.2,648.81l2,4.53c.39,1.15-10.91.6-9.05-4.53,2.3.19,4.75-.22,7.04,0Z"/>
  <path class="st9" d="M210.22,652.85c.33.25-2.56,6.02,2.01,6.53l-1.93.94.92,2.57c-4.13-.12-4.91.18-7.02-3.52l2.99-1.51,1,3.02c-.13-.54-1.35-10.59,2.02-8.03Z"/>
  <path class="st9" d="M202.09,660.96l1.12,3.95,1.98-1.01v3.03c-2.11-.76-2.63.36-3.59-2.04l-2.42,1.04v-5.04s2.92.08,2.92.08Z"/>
  <polygon class="st9" points="212.23 670.94 210.74 670.93 209.24 669.43 211.74 666.92 212.23 670.94"/>
  <polygon class="st9" points="210.21 666.92 208.23 665.41 209.73 663.91 210.21 666.92"/>
  <rect class="st9" x="206.21" y="665.92" width=".99" height="2"/>
  <path class="st0" d="M336.96,709.17v3.01s-1.01-2.01-1.01-2.01c.13-.56.43-.89,1.01-1.01Z"/>
  <path class="st27" d="M325.4,734.31c.65.34.65.67,0,1.01v-1.01Z"/>
  <path class="st29" d="M783.56,648.81l4.02,4.01c-5.5-.75-1.4,4.13-5.55,3.05-1.16-.3-1.75-.43-2.47-1.53l1.99-5.54c.66.05,1.34-.02,2.01,0Z"/>
  <rect class="st20" x="563.29" y="745.39" width="3.01" height=".99"/>
  <path class="st20" d="M573.84,737.33c.65.34.65.67,0,1.01v-1.01Z"/>
  <path class="st20" d="M595.47,694.08c-7.13,17.51-18.63,40.38-24.14,57.33l-6.04.5c-.59-4.21,1.16-1.33,2.75-2.2,1.23-.68,1.54-2.48,3.28-2.34l-3.99.53,1.36-3.57,3.13-1.02,1.51,2.06c.85-5.49,4.84-13.68.02-18.1.09,2.03-1.2,3.41-2.02,5.03-.57-.13-1.75.2-2.01,0,4.3-11.26,9.66-22.06,14.08-33.19.64-.1,1.46.15,2.01,0,1.31-.35,1.3-1.88,3,.5l-1.99,2.5h4.02s-.11-7.35-.11-7.35l5.15-.68ZM583.89,702.15c-.99.7.54,1.38,1.03,1.97,1-.66-.47-1.33-1.03-1.97Z"/>
  <path class="st19" d="M658.83,245.47l-2,4.02,3.43-1.11,1.09,2.13,1.5-2.02-.03,2.96c-.5.6-6.77,1.31-8.02,1.69-.81.24-1.55,1.94-2.7,2.24-5.67,1.49-7.23-5.44-4.4-7.46,2.09-1.5,4.29.42,5.66.44.33,0,2.53-3.76,5.47-2.88ZM655.32,250.49v1.01c.65-.34.65-.67,0-1.01Z"/>
  <path class="st9" d="M333.44,703.13c.65.34.65.67,0,1.01v-1.01Z"/>
  <path class="st22" d="M335.45,681c.65.34.65.67,0,1.01v-1.01Z"/>
  <path class="st7" d="M672.92,697.1v2s1.5.01,1.5.01l.51-2.02c2.14-.08,5.98-.12,8.05,0l-2.01,4.02-3.39,1.94-3.65-2.94v3.02c-.34-.02-.68.03-1.01,0l-4.02-1.01c.73-1.61,1.42-3.35,2.01-5.03.64-.08,1.35.04,2.01,0Z"/>
  <path class="st7" d="M668.9,703.13h-1.01c.27-.86.98-.94,1.01-1.01v1.01Z"/>
  <path class="st21" d="M680.97,701.12c1.3,2.8,3.6.67,5.03,3.02-4.61.54-8.45-.78-12.07-1.01v-3.02s3.65,2.94,3.65,2.94l3.39-1.94Z"/>
  <path class="st21" d="M695.05,704.14c-1.4-.21-2.8-.06-4.02-1.01.12-.07-.14-1.28.18-1.75l4.36-.23-.51,2.99Z"/>
  <path class="st27" d="M667.89,747.39c-.75-.26-.83-.88-1.01-1.01l1.01,1.01Z"/>
  <path class="st3" d="M654.81,745.38c.31-.53.92-.84,1.01-1.01l-1.01,1.01Z"/>
  <path class="st3" d="M667.89,747.39c2.11.73,8.72.6,11.39.61,7.87.02,17.55-.46,25.36-1.57,3.05-.44,6.18-.43,9.2-2.39,1.94-1.27,3.72-5.75,6.36-5.69-.76,1.63.14,4.22-.07,5.39-.13.73-1.62.53-1.75,1.14-.26,1.19,1.13,5.46-.38,7.35-.69.86-13.98,1.25-15.9,1.2-1.39-.03-6.83.12-7.43-.03-1.18-.28.08-2.41-1.61-1.98l-.51,3.01c-2.17-1.16-4.75-5.95-4.03-1l-6.12.92-.93-1.96-7.52,2.06-.52-3.04-.51,3.04h-3.01s-.01-3.02-.01-3.02c-2.7-.87-5.32,2.18-7.7,1.74-2.3-.42-4.37-2.7-7.38-1.74l.53,1.97-3.55.03.03-4.56c2.58.65,1.98-.48,2.98-2.48,3.67.52,3.75.06,5.03-3.02,1.63,1.24,1.51,1.64,4,1.5l-1,3.53-5.01-1c0,4.81,4.31,1.17,7.03,3.02l1.01-5.04c.11.21.75.82,1.01,1.01.17.12.26.75,1.01,1.01ZM695.55,750.41v1.01c.65-.34.65-.67,0-1.01Z"/>
  <path class="st29" d="M812.73,648.81l.5,2.02.5-2.02c1.01,0,2.01,0,3.02,0l-1.23,4.87-1.78,1.15c1.46-.77,4.54.16,5.37-.07.7-.2.49-1.5,1.39-1.88,1.05-.43,2.84.33,4.33-.56.75-.45.72-2.43,1.54-2.58,2.03-.37,4.79,1.84,4.46,4.09l-5.02-1-.55,3.09-15.54-.06c-1.13-3.97,1.09-4.19,2-7.04.34,0,.67,0,1.01,0ZM812.73,653.83l-2-2v2.01s2,0,2,0Z"/>
  <path class="st8" d="M370.16,747.39c.23.03,1.05,1.58,2.44,1.62,3.18.1,10.94-4.46,9.63,3.41-.25-.15-.79.16-1.01,0-.26-.19.56-2.11-.51-2.02h-1.49s0,2.02,0,2.02c-.62-.4-4.72-2.29-5.03-2l1.01,3c-2.76.71-5.35.08-8.05,0-.48-1.53.59-2.14,1.01-3.02.42-.88,1.49-1.49,1.01-3.02.33.03.68-.04,1.01,0Z"/>
  <path class="st3" d="M368.14,750.41v-3.02c.33.04.67-.03,1.01,0,.48,1.53-.59,2.14-1.01,3.02Z"/>
  <path class="st8" d="M366.13,747.39l-1.01,2.01c-.67-.14-1.49-.94-2.01-1.01.4-.69,2.28-.93,3.02-1.01Z"/>
  <path class="st3" d="M365.13,749.4l1.01-2.01c.32-.03.68-.01,1.01,0l-2.01,2.01Z"/>
  <path class="st3" d="M665.38,690.05c.65.34.65.67,0,1.01v-1.01Z"/>
  <path class="st19" d="M347.02,700.11c.31-.72-.64-2.67.5-3.03,3.65-1.15,3.73,2.12,4,2.03,1.05-.32,1.96-1.71,4.09-1.96,5.15-.61,10.36,1.13,15.54-.05v.99s-2.5,0-2.5,0l1.93.91,4.11-3.9c2.09.19,1.79,10.43,0,11.03l-1.93-2.78-3.98.84c-1.1-3.28-1.76-1.06-4.64-1.07-1.15,0-2.36-.52-3.5-.48-3.54.11-10.01,1.59-13.32,1.35-2.19-.16-1.38-1.44-2.29-2.88.28-.13.74.13,1.01,0l1.01-1.01Z"/>
  <path class="st15" d="M346.02,701.12c.13-.06.96-.9,1.01-1.01l-1.01,1.01Z"/>
  <path class="st3" d="M379.21,752.42v-2s1.5-.01,1.5-.01c1.08-.1.26,1.83.51,2.02-.05,4.49-1.05.62-2.01,0Z"/>
  <path class="st18" d="M470.24,555.27c.65.34.65.67,0,1.01v-1.01Z"/>
  <path class="st21" d="M674.93,697.1l-.51,2.02h-1.49s0-2.02,0-2.02c.67-.04,1.34.02,2.01,0Z"/>
  <path class="st10" d="M813.74,648.81l-.5,2.02-.5-2.02c.34,0,.67,0,1.01,0Z"/>
  <path class="st8" d="M339.98,675.97c0,1.68-.03,3.35,0,5.03-1.73-1.09-2.05-3.13-2.01-5.03.57-.14,1.37.09,2.01,0Z"/>
  <path class="st6" d="M638.22,257.54c.65.34.65.67,0,1.01v-1.01Z"/>
  <path class="st3" d="M662.37,710.19c1,.66-.47,1.33-1.03,1.97l-.47-.47,1.5-1.5Z"/>
  <path class="st29" d="M796.14,667.93c.65.34.65.67,0,1.01v-1.01Z"/>
  <path class="st11" d="M544.67,683.01c.65.34.65.67,0,1.01v-1.01Z"/>
  <path class="st11" d="M541.66,681c.65.34.65.67,0,1.01v-1.01Z"/>
  <path class="st5" d="M655.32,250.49c.65.34.65.67,0,1.01v-1.01Z"/>
  <path class="st27" d="M695.55,750.41c.65.34.65.67,0,1.01v-1.01Z"/>
  <polygon class="st10" points="812.73 653.83 810.73 653.84 810.73 651.83 812.73 653.83"/>
</svg>